<svg width="354" height="248" viewBox="0 0 354 248" fill="none" xmlns="http://www.w3.org/2000/svg">
<path d="M262.031 12.3214C318.449 46.937 300.728 105.772 324.874 123.382C356.173 146.209 373.425 240.486 311.087 242.36C187.103 246.097 26.887 242.36 26.887 242.36C26.887 242.36 -18.149 201.825 8.35217 134.395C34.8657 66.9639 103.419 84.5615 128.872 54.2128C154.324 23.864 205.613 -22.2818 262.031 12.3214Z" fill="#CAF0FF"/>
<path opacity="0.9" d="M315.194 240.486V219.127H305.834V223.394H302.554V214.848H290.555V223.394H287.928V216.821H285.301V177.396H282.021V152.424H266.088L266.249 182.526L255.619 182.649V158.54H239.143V184.166L234.211 184.326V158.491H228.464V147.479H225.011V140.08H211.545V147.479H208.092V158.491H202.345V172.488L199.694 172.648L198.892 131.188H181.147V153.238L174.907 153.398V118.955H172.773V111.679H154.041V118.955H151.908V173.215H147.961V150.932H144.681V143.841H139.921V123.173H133.015V143.841H128.255V150.919H124.938V175.423H122.632L120.819 175.398V147.01L72.1821 147.479V211.407H68.0879V203.034H53.302V219.139H49.0352V213.22H39.6753V223.406V225.219H30.3154V240.498H315.194V240.486Z" fill="#4188E4"/>
<path d="M229.043 18.808C223.753 18.808 219.252 22.1623 217.537 26.8607C216.329 26.1824 214.935 25.8002 213.456 25.8002C208.819 25.8002 205.058 29.5614 205.058 34.1982C205.058 34.4695 205.07 34.7408 205.095 35.0121H259.737C259.047 32.0154 256.371 29.7833 253.164 29.7833C252.572 29.7833 252.005 29.8573 251.462 30.0053C249.884 26.6264 246.443 24.2833 242.473 24.2833C241.449 24.2833 240.45 24.4436 239.513 24.7273C237.392 21.188 233.495 18.808 229.043 18.808Z" fill="white"/>
<path d="M58.1973 109.324C58.5672 107.745 59.9731 106.562 61.6749 106.562C61.9832 106.562 62.2914 106.599 62.5751 106.673C63.4136 104.884 65.2264 103.639 67.3352 103.639C67.8778 103.639 68.4081 103.725 68.9013 103.873C70.0359 101.999 72.0953 100.741 74.4507 100.741C77.25 100.741 79.6301 102.517 80.5303 105.008C81.1715 104.65 81.9115 104.453 82.6884 104.453C85.1424 104.453 87.1278 106.438 87.1278 108.892C87.1278 109.04 87.1155 109.176 87.1032 109.324H58.1973Z" fill="white"/>
<path d="M157.444 66.4459C157.888 64.5222 159.602 63.0917 161.662 63.0917C162.044 63.0917 162.402 63.141 162.747 63.2273C163.758 61.0569 165.966 59.5648 168.506 59.5648C169.16 59.5648 169.801 59.6634 170.405 59.8484C171.774 57.5793 174.277 56.0502 177.126 56.0502C180.517 56.0502 183.403 58.1959 184.5 61.2172C185.277 60.7856 186.165 60.539 187.115 60.539C190.087 60.539 192.492 62.9437 192.492 65.9157C192.492 66.0883 192.479 66.261 192.467 66.4336H157.444V66.4459Z" fill="white"/>
<path d="M255.988 87.1141C256.432 85.1904 258.146 83.7599 260.206 83.7599C260.588 83.7599 260.946 83.8092 261.291 83.8955C262.302 81.7251 264.51 80.233 267.05 80.233C267.704 80.233 268.345 80.3316 268.949 80.5166C270.318 78.2475 272.821 76.7184 275.67 76.7184C279.061 76.7184 281.947 78.8641 283.044 81.8854C283.821 81.4538 284.709 81.2072 285.659 81.2072C288.631 81.2072 291.035 83.6119 291.035 86.5839C291.035 86.7565 291.023 86.9292 291.011 87.1018H255.988V87.1141Z" fill="white"/>
<path d="M23.2002 133.063C23.6441 131.139 25.3583 129.708 27.4177 129.708C27.8 129.708 28.1576 129.758 28.5029 129.844C29.5141 127.674 31.7215 126.182 34.2619 126.182C34.9155 126.182 35.5567 126.28 36.161 126.465C37.5298 124.196 40.0332 122.667 42.8819 122.667C46.2731 122.667 49.1588 124.813 50.2563 127.834C51.0332 127.402 51.9211 127.156 52.8707 127.156C55.8426 127.156 58.2474 129.561 58.2474 132.532C58.2474 132.705 58.235 132.878 58.2227 133.05H23.2002V133.063Z" fill="white"/>
<path d="M88.174 114.626C87.8928 114.955 87.4281 115.001 87.0911 114.73C86.7493 114.455 86.6973 113.982 86.9814 113.648C87.253 113.328 87.6358 112.887 88.1281 112.338C88.4122 112.021 88.9003 111.998 89.2146 112.285C89.5274 112.571 89.5503 113.056 89.2689 113.372C88.8038 113.895 88.4371 114.318 88.174 114.626Z" fill="white"/>
<path d="M263.229 110.481C262.936 110.788 262.449 110.799 262.141 110.505C260.919 109.339 259.685 108.19 258.456 107.074C258.142 106.79 258.116 106.306 258.397 105.991C258.681 105.673 259.169 105.646 259.484 105.932C260.725 107.06 261.971 108.221 263.205 109.399C263.511 109.691 263.521 110.175 263.229 110.481ZM94.8815 107.526C94.5761 107.824 94.0877 107.821 93.7879 107.517C93.488 107.214 93.4902 106.725 93.795 106.426C94.9921 105.254 96.2366 104.085 97.5061 102.934C97.8216 102.648 98.3094 102.676 98.5929 102.994C98.8749 103.31 98.8486 103.794 98.5356 104.079C97.2879 105.217 96.0643 106.374 94.8815 107.526ZM253.439 101.664C253.164 101.986 252.682 102.026 252.357 101.755C251.06 100.675 249.753 99.6129 248.457 98.5905C248.122 98.3269 248.063 97.8422 248.326 97.5073C248.588 97.1745 249.069 97.1152 249.402 97.3767C250.718 98.4105 252.039 99.4842 253.347 100.576C253.675 100.85 253.716 101.339 253.439 101.664ZM104.678 98.7963C104.35 99.065 103.866 99.0193 103.596 98.6918C103.328 98.3657 103.374 97.8839 103.701 97.6168C105.017 96.5411 106.36 95.4833 107.713 94.4659C108.052 94.2112 108.532 94.2814 108.787 94.6204C109.043 94.9623 108.972 95.4475 108.63 95.7038C107.295 96.704 105.97 97.7385 104.678 98.7963ZM243.046 93.5456C242.798 93.8897 242.318 93.9677 241.972 93.7216C240.6 92.7459 239.217 91.7879 237.839 90.8698C237.484 90.6337 237.386 90.1552 237.622 89.8003C237.856 89.4471 238.332 89.35 238.685 89.5849C240.08 90.5139 241.485 91.4783 242.873 92.4726C243.218 92.7201 243.295 93.2012 243.046 93.5456ZM115.215 90.9756C114.863 91.2121 114.386 91.1213 114.148 90.7707C113.909 90.42 114.001 89.9422 114.353 89.7056C115.767 88.7543 117.195 87.8218 118.624 86.936C118.985 86.7127 119.457 86.8268 119.679 87.1882C119.9 87.5494 119.787 88.0216 119.428 88.2461C118.02 89.1252 116.608 90.0387 115.215 90.9756ZM232.027 86.3077C231.81 86.6716 231.338 86.7905 230.973 86.5757C229.522 85.7235 228.054 84.8956 226.597 84.1084C226.225 83.9078 226.083 83.4455 226.28 83.0719C226.478 82.6962 226.944 82.5529 227.318 82.7543C228.796 83.5513 230.281 84.3845 231.76 85.2542C232.126 85.4697 232.245 85.9427 232.027 86.3077ZM126.424 84.1855C126.052 84.3855 125.587 84.25 125.384 83.88C125.179 83.5077 125.315 83.0395 125.69 82.8383C127.192 82.0308 128.713 81.2477 130.23 80.5057C130.61 80.3197 131.068 80.4801 131.252 80.8613C131.436 81.2429 131.275 81.7012 130.895 81.8873C129.401 82.6181 127.903 83.3897 126.424 84.1855ZM220.38 80.1344C220.2 80.5225 219.739 80.6904 219.35 80.5122C217.828 79.8149 216.288 79.148 214.758 78.5227C214.366 78.3624 214.174 77.9168 214.33 77.5232C214.488 77.1269 214.937 76.9339 215.332 77.0951C216.885 77.7298 218.449 78.4007 220.003 79.1077C220.392 79.2851 220.561 79.7463 220.38 80.1344ZM138.275 78.5849C137.883 78.7448 137.434 78.5598 137.27 78.1687C137.107 77.7765 137.292 77.3256 137.686 77.1652C139.264 76.5215 140.865 75.9095 142.451 75.3457C142.851 75.2033 143.29 75.4159 143.429 75.8174C143.569 76.2194 143.356 76.6582 142.955 76.8003C141.396 77.3529 139.827 77.9532 138.275 78.5849ZM208.135 75.262C208.002 75.6644 207.568 75.8824 207.165 75.7519C205.566 75.2346 203.957 74.7542 202.358 74.3163C201.95 74.2044 201.706 73.7844 201.815 73.375C201.924 72.9668 202.343 72.7232 202.751 72.8339C204.378 73.2758 206.022 73.767 207.649 74.2963C208.051 74.4271 208.268 74.8605 208.135 75.262ZM150.663 74.3676C150.253 74.4795 149.829 74.242 149.713 73.8336C149.597 73.4245 149.835 72.9985 150.245 72.886C151.888 72.4354 153.548 72.0274 155.199 71.6566C155.614 71.5633 156.025 71.8284 156.114 72.2449C156.202 72.6591 155.938 73.0663 155.525 73.1588C153.908 73.5211 152.28 73.9259 150.663 74.3676ZM195.402 71.891C195.321 72.3095 194.915 72.5822 194.496 72.5034C192.854 72.1946 191.2 71.9234 189.557 71.7008C189.135 71.6436 188.837 71.2577 188.891 70.8354C188.946 70.4136 189.332 70.1156 189.753 70.1735C191.431 70.4042 193.12 70.6775 194.79 70.988C195.21 71.066 195.484 71.472 195.402 71.891ZM163.47 71.7377C163.051 71.7964 162.661 71.5071 162.599 71.0881C162.538 70.6697 162.828 70.2806 163.247 70.2227C164.938 69.9893 166.64 69.7996 168.325 69.6536C168.745 69.6172 169.114 69.9314 169.148 70.3522C169.182 70.7753 168.865 71.1451 168.442 71.1805C166.795 71.3185 165.124 71.5061 163.47 71.7377ZM182.33 70.2192C182.303 70.6425 181.94 70.9643 181.516 70.9432C179.853 70.8603 178.174 70.8151 176.519 70.8185C176.092 70.8194 175.743 70.477 175.739 70.0504C175.736 69.6257 176.076 69.278 176.501 69.2771C178.192 69.2733 179.905 69.3186 181.603 69.4018C182.031 69.4228 182.358 69.7913 182.33 70.2192Z" fill="white"/>
<path d="M270.18 117.471C269.875 117.76 269.394 117.747 269.102 117.445C268.707 117.036 268.309 116.629 267.911 116.224C267.613 115.921 267.618 115.434 267.922 115.137C268.224 114.841 268.709 114.846 269.004 115.148C269.405 115.558 269.807 115.974 270.208 116.391C270.501 116.696 270.488 117.181 270.18 117.471Z" fill="white"/>
<path opacity="0.3" d="M300.445 58.2823C297.362 59.2566 294.44 60.7364 291.344 61.6489C285.265 63.4247 278.531 62.8945 272.797 60.1691C266.36 57.1108 261.193 51.4381 254.312 49.576C249.293 48.2195 243.965 49.0581 238.798 48.5402C233.631 48.0099 227.946 45.3832 226.701 40.3395C226.466 39.3899 226.417 38.354 226.836 37.4661C227.724 35.6164 230.178 35.2834 232.225 35.1847C237.466 34.9504 242.732 34.7038 247.924 35.3821C254.534 36.2453 261.218 38.6007 267.729 37.0962C269.714 36.6399 271.613 35.8383 273.586 35.3204C278.26 34.1119 283.156 34.6175 287.941 35.493C281.651 27.1444 273.34 19.2396 262.031 12.3091C259.972 11.0513 257.925 9.89208 255.878 8.84387C251.685 11.4952 247.751 14.6768 243.201 16.6499C236.615 19.4863 229.204 19.5726 222.039 19.1656C217.76 18.919 213.049 18.6477 209.646 21.2374C207.155 23.1365 205.872 26.2565 203.554 28.3652C200.754 30.9179 196.821 31.7072 193.146 32.632C188.472 33.8159 183.761 35.4807 180.246 38.7733C176.732 42.0659 174.709 47.3316 176.399 51.8451C178.557 57.5671 185.451 59.8238 191.542 60.3418C199.336 61.0077 207.364 60.0581 214.874 62.2409C219.98 63.7207 224.567 66.557 229.327 68.9124C237.577 72.9819 246.444 75.6209 255.335 77.9517C261.933 79.6781 268.666 81.2689 275.486 81.0716C280.542 80.9236 285.524 79.8014 290.58 79.5301C295.944 79.2465 301.53 79.8878 306.525 77.9393C304.922 71.5638 303.035 64.9292 300.445 58.2823Z" fill="white"/>
<path opacity="0.3" d="M158.283 45.4572C157.432 45.0132 156.396 45.1859 155.447 45.2969C151.957 45.7161 148.368 45.2599 145.112 43.965C143.448 43.3114 141.857 42.4359 140.278 41.5726C136.061 45.9134 132.238 50.2049 128.871 54.2128C128.279 54.9157 127.663 55.6063 127.022 56.2599C127.638 56.5312 128.255 56.8148 128.859 57.1231C130.598 58.011 132.448 59.3428 132.559 61.2913C132.67 63.1904 131.042 64.7072 129.439 65.7061C125.024 68.4438 119.462 69.5783 116.108 73.5615C113.148 77.0637 112.322 82.3911 108.425 84.7958C106.686 85.8687 104.578 86.1647 102.543 86.3126C95.748 86.8059 88.6449 85.9674 82.3556 88.5817C80.9744 89.149 79.6673 89.8889 78.2491 90.3575C76.3993 90.9741 74.4262 91.1344 72.4778 91.2577C63.5742 91.788 54.6212 91.4797 45.7793 90.3575C39.4654 93.9214 33.4228 98.2869 27.8857 103.812C28.268 103.984 28.6503 104.169 29.0326 104.342C32.9665 106.167 36.9743 108.004 41.2658 108.683C45.212 109.299 49.2445 108.917 53.2277 108.522C58.0742 108.041 62.9699 107.56 67.619 106.105C72.7491 104.502 77.4968 101.752 82.7256 100.544C88.4845 99.1995 94.4778 99.779 100.385 99.9764C108.228 100.235 116.231 99.7914 123.618 97.1524C131.017 94.5257 137.8 89.4819 141.24 82.4281C143.053 78.6916 143.978 74.4001 146.802 71.3664C149.737 68.2218 154.213 66.9886 157.407 64.1276C162.155 59.8855 163.129 52.0301 159.578 46.752C159.232 46.2464 158.838 45.7408 158.283 45.4572Z" fill="white"/>
<path opacity="0.3" d="M196.992 136.195H182.65V138.119H196.992V136.195Z" fill="#4188E4"/>
<g opacity="0.2">
<path opacity="0.2" d="M81.9738 152.103H76.2148V159.551H81.9738V152.103Z" fill="#4188E4"/>
<path opacity="0.2" d="M81.9738 176.088H76.2148V183.537H81.9738V176.088Z" fill="#4188E4"/>
<path opacity="0.2" d="M90.8156 152.103H85.0566V159.551H90.8156V152.103Z" fill="#4188E4"/>
<path opacity="0.2" d="M99.6574 152.103H93.8984V159.551H99.6574V152.103Z" fill="#4188E4"/>
<path opacity="0.2" d="M99.6574 192.305H93.8984V199.753H99.6574V192.305Z" fill="#4188E4"/>
<path opacity="0.2" d="M90.8156 164.003H85.0566V171.452H90.8156V164.003Z" fill="#4188E4"/>
<path opacity="0.2" d="M90.8156 205.031H85.0566V212.48H90.8156V205.031Z" fill="#4188E4"/>
<path opacity="0.2" d="M90.8156 176.088H85.0566V183.537H90.8156V176.088Z" fill="#4188E4"/>
<path opacity="0.2" d="M107.254 176.088H101.495V183.537H107.254V176.088Z" fill="#4188E4"/>
<path opacity="0.2" d="M107.254 205.031H101.495V212.48H107.254V205.031Z" fill="#4188E4"/>
<path opacity="0.2" d="M114.493 152.103H108.734V159.551H114.493V152.103Z" fill="#4188E4"/>
<path opacity="0.2" d="M158.58 122.544H155.386V126.687H158.58V122.544Z" fill="#4188E4"/>
<path opacity="0.2" d="M165.239 122.544H162.045V126.687H165.239V122.544Z" fill="#4188E4"/>
<path opacity="0.2" d="M158.58 129.844H155.386V133.987H158.58V129.844Z" fill="#4188E4"/>
<path opacity="0.2" d="M171.885 129.844H168.691V133.987H171.885V129.844Z" fill="#4188E4"/>
<path opacity="0.2" d="M165.239 137.157H162.045V141.3H165.239V137.157Z" fill="#4188E4"/>
<path opacity="0.2" d="M171.885 137.157H168.691V141.3H171.885V137.157Z" fill="#4188E4"/>
<path opacity="0.2" d="M158.58 144.47H155.386V148.613H158.58V144.47Z" fill="#4188E4"/>
<path opacity="0.2" d="M171.885 144.47H168.691V148.613H171.885V144.47Z" fill="#4188E4"/>
<path opacity="0.2" d="M158.58 151.77H155.386V155.914H158.58V151.77Z" fill="#4188E4"/>
<path opacity="0.2" d="M165.239 151.77H162.045V155.914H165.239V151.77Z" fill="#4188E4"/>
<path opacity="0.2" d="M171.885 159.083H168.691V163.226H171.885V159.083Z" fill="#4188E4"/>
<path opacity="0.2" d="M158.58 173.696H155.386V177.84H158.58V173.696Z" fill="#4188E4"/>
<path opacity="0.2" d="M210.373 161.475H207.179V165.619H210.373V161.475Z" fill="#4188E4"/>
<path opacity="0.2" d="M228.131 161.475H224.938V165.619H228.131V161.475Z" fill="#4188E4"/>
<path opacity="0.2" d="M219.018 150.229H215.824V154.372H219.018V150.229Z" fill="#4188E4"/>
<path opacity="0.2" d="M270.405 156.481H267.211V160.624H270.405V156.481Z" fill="#4188E4"/>
<path opacity="0.2" d="M281.096 156.481H277.902V160.624H281.096V156.481Z" fill="#4188E4"/>
<path opacity="0.2" d="M281.096 163.868H277.902V168.011H281.096V163.868Z" fill="#4188E4"/>
<path opacity="0.2" d="M270.405 171.242H267.211V175.386H270.405V171.242Z" fill="#4188E4"/>
<path opacity="0.2" d="M281.096 171.242H277.902V175.386H281.096V171.242Z" fill="#4188E4"/>
<path opacity="0.2" d="M270.405 178.629H267.211V182.772H270.405V178.629Z" fill="#4188E4"/>
<path opacity="0.2" d="M275.745 186.003H272.551V190.147H275.745V186.003Z" fill="#4188E4"/>
<path opacity="0.2" d="M281.096 186.003H277.902V190.147H281.096V186.003Z" fill="#4188E4"/>
<path opacity="0.2" d="M281.096 193.39H277.902V197.534H281.096V193.39Z" fill="#4188E4"/>
<path opacity="0.2" d="M270.405 200.765H267.211V204.908H270.405V200.765Z" fill="#4188E4"/>
<path opacity="0.2" d="M275.745 200.765H272.551V204.908H275.745V200.765Z" fill="#4188E4"/>
<path opacity="0.2" d="M225.886 150.229H222.692V154.372H225.886V150.229Z" fill="#4188E4"/>
<path opacity="0.2" d="M210.373 169.812H207.179V173.955H210.373V169.812Z" fill="#4188E4"/>
<path opacity="0.2" d="M216.293 169.812H213.099V173.955H216.293V169.812Z" fill="#4188E4"/>
<path opacity="0.2" d="M210.373 178.135H207.179V182.279H210.373V178.135Z" fill="#4188E4"/>
<path opacity="0.2" d="M222.212 178.135H219.018V182.279H222.212V178.135Z" fill="#4188E4"/>
<path opacity="0.2" d="M228.131 178.135H224.938V182.279H228.131V178.135Z" fill="#4188E4"/>
<path opacity="0.2" d="M216.293 186.472H213.099V190.615H216.293V186.472Z" fill="#4188E4"/>
<path opacity="0.2" d="M210.373 194.808H207.179V198.952H210.373V194.808Z" fill="#4188E4"/>
<path opacity="0.2" d="M222.212 194.808H219.018V198.952H222.212V194.808Z" fill="#4188E4"/>
<path opacity="0.2" d="M228.131 194.808H224.938V198.952H228.131V194.808Z" fill="#4188E4"/>
<path opacity="0.2" d="M210.373 211.469H207.179V215.612H210.373V211.469Z" fill="#4188E4"/>
<path opacity="0.2" d="M222.212 211.469H219.018V215.612H222.212V211.469Z" fill="#4188E4"/>
<path opacity="0.2" d="M114.493 192.305H108.734V199.753H114.493V192.305Z" fill="#4188E4"/>
<path opacity="0.2" d="M144.878 154.052H127.231V155.975H144.878V154.052Z" fill="#4188E4"/>
<path opacity="0.2" d="M196.993 148.625H182.651V150.549H196.993V148.625Z" fill="#4188E4"/>
<path opacity="0.2" d="M196.993 152.757H182.651V154.68H196.993V152.757Z" fill="#4188E4"/>
<path opacity="0.2" d="M196.993 165.187H182.651V167.111H196.993V165.187Z" fill="#4188E4"/>
<path opacity="0.2" d="M254.46 161.475H240.118V163.399H254.46V161.475Z" fill="#4188E4"/>
<path opacity="0.2" d="M254.46 165.619H240.118V167.542H254.46V165.619Z" fill="#4188E4"/>
<path opacity="0.2" d="M254.46 173.906H240.118V175.83H254.46V173.906Z" fill="#4188E4"/>
<path opacity="0.2" d="M254.46 186.324H240.118V188.248H254.46V186.324Z" fill="#4188E4"/>
<path opacity="0.2" d="M254.46 194.599H240.118V196.522H254.46V194.599Z" fill="#4188E4"/>
<path opacity="0.2" d="M254.46 202.886H240.118V204.81H254.46V202.886Z" fill="#4188E4"/>
<path opacity="0.2" d="M254.46 211.16H240.118V213.084H254.46V211.16Z" fill="#4188E4"/>
<path opacity="0.2" d="M196.993 177.605H182.651V179.529H196.993V177.605Z" fill="#4188E4"/>
<path opacity="0.2" d="M196.993 185.88H182.651V187.804H196.993V185.88Z" fill="#4188E4"/>
<path opacity="0.2" d="M144.878 159.564H127.231V161.488H144.878V159.564Z" fill="#4188E4"/>
<path opacity="0.2" d="M144.878 165.064H127.231V166.988H144.878V165.064Z" fill="#4188E4"/>
<path opacity="0.2" d="M144.878 176.088H127.231V178.012H144.878V176.088Z" fill="#4188E4"/>
<path opacity="0.2" d="M144.878 187.101H127.231V189.025H144.878V187.101Z" fill="#4188E4"/>
<path opacity="0.2" d="M144.878 192.613H127.231V194.537H144.878V192.613Z" fill="#4188E4"/>
<path opacity="0.2" d="M144.878 203.625H127.231V205.549H144.878V203.625Z" fill="#4188E4"/>
<path opacity="0.2" d="M144.878 214.638H127.231V216.562H144.878V214.638Z" fill="#4188E4"/>
</g>
<path opacity="0.3" d="M196.992 140.339H182.65V142.262H196.992V140.339Z" fill="#4188E4"/>
<path d="M80.4446 126.515L84.5882 134.74L88.9413 126.625C90.2238 123.654 88.1644 120.25 84.9211 120.114C84.8718 120.114 84.8225 120.114 84.7731 120.114C84.7238 120.114 84.6745 120.114 84.6251 120.114C81.3819 120.164 79.2361 123.506 80.4446 126.515ZM82.5657 124.813C82.5781 123.629 83.5523 122.679 84.7361 122.692C85.92 122.704 86.8695 123.678 86.8572 124.862C86.8449 126.046 85.8707 126.995 84.6868 126.983C83.5029 126.971 82.5534 125.997 82.5657 124.813Z" fill="#FC8019"/>
<path d="M21.6338 205.229C23.3725 204.884 24.7167 203.49 25.0373 201.727C25.9499 196.732 28.8356 187.952 37.8625 187.792C48.4926 187.607 50.3793 195.573 50.1327 201.369C50.071 202.824 51.2549 204.02 52.6977 203.959C55.8424 203.823 60.4298 204.563 60.4298 209.915C60.4298 209.915 63.2785 220.015 55.1888 222.444C47.0991 224.874 43.2022 221.68 39.7369 224.923C36.543 227.92 26.0979 231.039 21.0542 224.208C20.2649 223.135 19.2907 222.235 18.1808 221.519C16.2941 220.298 13.803 217.314 15.8748 210.495C16.6887 207.843 18.8344 205.821 21.4981 205.254C21.5351 205.241 21.5844 205.241 21.6338 205.229Z" fill="#70C0FD"/>
<path d="M41.3404 214.009C40.6128 214.577 39.9099 215.218 39.281 215.945C39.1207 216.13 38.9727 216.315 38.8124 216.513C38.8617 215.612 38.9727 214.91 39.1453 214.441C39.3426 213.911 39.8976 213.01 40.5758 211.74C41.3157 210.803 42.2283 209.853 43.2025 209.027C44.2507 208.139 45.3976 207.387 46.7048 206.98C45.3359 207.19 44.0781 207.782 42.9065 208.509C42.5366 208.744 42.1666 208.99 41.7967 209.262C43.3505 205.747 44.8796 200.592 44.2507 193.748C44.2507 193.748 44.0781 198.348 43.0792 202.553C42.9189 201.875 42.6969 201.221 42.4256 200.592C41.772 199.088 41.3281 198.422 40.4155 197.127C41.1801 198.52 41.5377 199.223 42.0186 200.777C42.9805 204.082 42.3516 205.192 41.8337 206.327C40.2922 209.668 38.4177 212.086 37.6162 214.046C37.3202 213.405 37.0119 212.776 36.7036 212.147C36.0377 210.803 35.3594 209.484 34.6565 208.164C34.5455 207.954 34.4222 207.745 34.3112 207.523C34.2249 207.239 34.1016 206.844 33.9536 205.932C33.8796 205.463 33.818 204.995 33.7686 204.526C33.6576 203.305 33.6576 202.639 33.67 201.665C33.559 202.664 33.5097 203.318 33.5097 204.538C33.5097 205.019 33.5343 205.5 33.5713 205.994C33.5713 206.068 33.5836 206.154 33.596 206.228C33.596 206.216 33.5837 206.216 33.5837 206.203C33.2137 205.562 32.8437 204.921 32.4491 204.292C32.0545 203.663 31.6599 203.046 31.2406 202.442C30.8213 201.838 30.3774 201.258 29.9088 200.716C30.3527 201.295 30.7473 201.899 31.1296 202.528C31.5119 203.157 31.8695 203.799 32.2148 204.452C32.5601 205.106 32.8931 205.772 33.226 206.438C33.559 207.103 33.8673 207.782 34.1879 208.448C34.2249 208.534 34.2619 208.62 34.3112 208.707C34.1016 208.645 33.9043 208.583 33.559 208.497C31.9558 208.09 30.6363 207.979 29.4278 207.893C30.5253 208.09 31.8449 208.337 33.448 208.929C33.8303 209.064 34.2619 209.249 34.6319 209.422C35.1005 210.458 35.5444 211.494 35.976 212.542C36.2597 213.232 36.5433 213.923 36.8146 214.614C36.9503 214.959 37.0859 215.304 37.2216 215.662V215.674C37.2216 215.76 37.2215 215.847 37.2339 215.933C37.2832 216.55 37.3942 218.042 37.5298 219.941C36.531 219.423 35.4088 219.028 34.2002 218.794C32.8561 218.535 31.8695 218.572 29.7978 218.498C29.6251 218.387 29.3661 218.165 29.1072 217.869C28.4659 217.142 28.0096 216.18 27.837 215.033C27.911 216.192 28.2809 217.24 28.8975 218.091C28.9962 218.227 29.0948 218.35 29.1935 218.473C28.6016 218.449 28.022 218.399 27.4424 218.325C26.8135 218.239 26.1722 218.128 25.5556 217.943C24.939 217.746 24.3347 217.487 23.8045 217.055C24.3101 217.524 24.902 217.845 25.5063 218.091C26.0735 218.313 26.6531 218.473 27.2451 218.609C27.1217 218.634 27.0108 218.646 26.8874 218.671C26.4558 218.745 26.0242 218.831 25.5926 218.942C25.161 219.053 24.7417 219.164 24.3224 219.312C23.9031 219.46 23.4962 219.633 23.1016 219.842C23.5085 219.657 23.9278 219.534 24.3471 219.423C24.7664 219.312 25.198 219.238 25.6296 219.164C26.0612 219.102 26.4928 219.041 26.9244 219.004C27.3561 218.967 28.5892 218.917 29.0209 218.917C31.2283 219.213 32.5724 219.226 34.0646 219.645C35.3594 220.003 36.531 220.558 37.5052 221.223C37.5422 221.248 37.5915 221.285 37.6285 221.31C37.9491 226.464 38.2328 233.518 37.5545 235.306C36.5433 237.97 42.6599 237.008 42.6599 237.008C42.6599 237.008 40.6005 235.861 39.7989 229.88C39.3303 226.403 38.8 221.902 38.763 218.498C38.7877 218.436 38.8247 218.375 38.8494 218.313C38.948 218.103 39.0467 217.906 39.1577 217.709C39.3796 217.314 39.6139 216.92 39.8852 216.55C40.4032 215.797 41.0074 215.119 41.661 214.49C42.6846 213.479 44.2754 212.382 46.1128 211.605C44.226 212.16 42.5119 213.072 41.3404 214.009Z" fill="white"/>
<path d="M83.5399 215.23C87.6588 215.304 91.716 214.182 95.1565 211.925C97.9312 210.112 100.521 207.449 101.002 203.7C102.099 195.117 97.1543 195.4 95.9458 191.898C94.7373 188.396 98.3258 186.83 96.772 180.454C95.9335 177.026 93.2944 175.546 89.1756 170.034C85.0567 164.534 80.0747 161.71 76.4368 163.757C72.7989 165.804 72.9469 170.231 70.2338 171.699C67.5332 173.166 63.365 178.296 64.9558 188.063C66.5466 197.818 55.8056 194.18 60.0107 205.476C63.106 213.75 76.5724 215.094 83.5399 215.23Z" fill="#70C0FD"/>
<path d="M78.6445 207.843C79.0268 213.269 79.5818 234.863 78.7802 236.737C77.5717 239.536 83.9349 236.046 83.9349 236.046C83.9349 236.046 82.2454 223.16 81.2589 216.858C80.8273 214.059 80.0257 205.624 80.0134 204.884C80.0504 204.822 80.075 204.748 80.112 204.686C80.223 204.464 80.3587 204.255 80.482 204.045C80.741 203.626 81.0369 203.219 81.3576 202.824C81.9865 202.035 82.7017 201.32 83.491 200.654C84.9708 199.384 86.9932 198.299 88.8553 197.62C86.5246 198.212 84.4652 199.186 83.0964 200.136C82.2085 200.728 81.3822 201.406 80.6176 202.171C80.4203 202.368 80.2354 202.565 80.0627 202.775C80.1244 201.838 80.26 201.086 80.4573 200.605C80.6916 200.05 81.3576 199.1 82.1838 197.768C83.047 196.819 84.1569 195.795 85.3531 194.907C86.6479 193.958 88.0291 193.181 89.5829 192.749C87.9551 192.971 86.4506 193.575 85.0078 194.352C84.5515 194.599 84.1076 194.858 83.6636 195.154C85.5381 191.454 87.3878 186.041 86.6233 178.839C86.6233 178.839 86.4136 183.673 85.2174 188.1C85.0201 187.385 84.7488 186.694 84.4405 186.041C83.6513 184.45 83.121 183.759 82.0235 182.403C82.936 183.87 83.3677 184.61 83.9596 186.238C85.0818 189.605 84.4159 190.801 83.7376 192.071C81.8755 195.586 79.6188 198.126 78.6569 200.185C78.2993 199.519 77.9293 198.853 77.5593 198.188C76.7578 196.782 75.9439 195.376 75.093 194.007C74.9573 193.785 74.8217 193.563 74.6737 193.341C74.5504 192.959 74.5257 192.934 74.4024 192.392C74.3407 192.145 74.2914 191.911 74.2544 191.664C74.1681 191.171 74.0818 190.677 74.0324 190.184C73.9831 189.691 73.9338 189.185 73.9214 188.68C73.8968 188.149 73.9091 187.57 73.9214 187.175C73.8721 187.557 73.7981 188.149 73.7735 188.68C73.7365 189.185 73.7241 189.691 73.7241 190.197C73.7241 190.702 73.7488 191.208 73.7858 191.726C73.7981 191.812 73.7981 191.898 73.8105 191.972C73.8105 191.96 73.7981 191.96 73.7981 191.948C73.3542 191.269 72.8979 190.603 72.4293 189.938C71.9607 189.284 71.4797 188.63 70.9741 187.989C70.4685 187.36 69.9382 186.744 69.371 186.176C69.9013 186.781 70.3822 187.422 70.8508 188.088C71.3071 188.754 71.7387 189.432 72.158 190.11C72.5773 190.801 72.9842 191.491 73.3788 192.194C73.7735 192.897 74.1557 193.6 74.538 194.315C74.5874 194.402 74.6367 194.5 74.686 194.587C73.8351 194.352 72.9965 194.192 72.121 194.056C70.7028 193.847 70.1725 193.81 68.8037 193.723C70.1602 193.933 70.6782 194.019 72.0593 194.365C73.4775 194.722 74.501 195.092 75.0806 195.339C75.6356 196.424 76.1782 197.522 76.7084 198.619C77.0537 199.347 77.399 200.074 77.7197 200.802C77.8553 201.098 78.0403 201.369 78.1143 201.69C78.3239 202.849 78.6445 207.843 78.6445 207.843Z" fill="white"/>
<path d="M269.184 131.595L273.29 139.833L277.668 131.743C278.963 128.771 276.916 125.368 273.673 125.22C273.623 125.22 273.574 125.22 273.525 125.22C273.475 125.22 273.426 125.22 273.377 125.22C270.158 125.257 267.988 128.586 269.184 131.595ZM271.317 129.906C271.342 128.722 272.316 127.772 273.5 127.797C274.684 127.822 275.633 128.796 275.609 129.98C275.584 131.164 274.61 132.113 273.426 132.089C272.242 132.064 271.292 131.09 271.317 129.906Z" fill="#007BFF"/>
<path d="M50.1445 232.84C50.1445 232.84 50.5022 226.92 55.6569 227.463C55.6569 227.463 62.6737 216.278 70.0112 232.063C70.0112 232.063 76.6457 228.474 79.0874 236.268C79.0874 236.268 83.1693 228.659 88.9776 231.175C94.7859 233.691 96.7713 240.621 96.7713 240.621L53.8934 241.534L50.1445 232.84Z" fill="#70C0FD"/>
<path d="M178.161 120.904C177.952 121.052 174.166 127.834 174.166 127.834L169.085 123.37L174.018 115.145L178.149 117.463V120.904H178.161Z" fill="#FFAD61"/>
<path d="M171.169 119.892C171.798 121.668 173.08 124.011 175.645 125.195C176.731 123.271 178.038 120.99 178.161 120.904V117.451L174.03 115.132L171.169 119.892Z" fill="#FFA254"/>
<path d="M125.036 189.444C125.036 189.444 123.593 188.433 122.225 191.676C120.856 194.919 122.693 196.214 122.693 196.214C122.693 196.214 125.061 194.463 125.036 194.13C125.012 193.797 124.925 189.604 124.925 189.604L125.036 189.444Z" fill="white"/>
<path d="M127.404 188.273C127.404 188.273 126.245 187.557 124.938 189.604C124.457 190.357 123.951 191.491 123.482 193.168C121.731 199.408 123.482 199.408 123.482 199.408L126.417 198.163C126.417 198.163 129.229 191.01 129.056 190.418C128.884 189.851 127.404 188.273 127.404 188.273Z" fill="#FC8019"/>
<path d="M152.08 172.204H103.282C102.9 172.204 102.592 172.513 102.592 172.895V173.425C102.592 173.807 102.9 174.116 103.282 174.116H152.08C152.462 174.116 152.77 173.807 152.77 173.425V172.895C152.77 172.513 152.462 172.204 152.08 172.204Z" fill="#283F56"/>
<path d="M143.336 173.166H139.97V182.094H143.336V173.166Z" fill="#283F56"/>
<path d="M116.293 179.653H115.171C114.357 179.653 113.703 178.999 113.703 178.185V171.415H117.76V178.185C117.76 178.999 117.107 179.653 116.293 179.653Z" fill="#283F56"/>
<path d="M117.193 177.63C117.674 178.185 129.488 189.296 129.488 189.296L128.489 190.665L116.009 178.358L117.193 177.63Z" fill="#283F56"/>
<path d="M224.456 198.126H225.122C226.503 198.126 227.613 199.248 227.613 200.617V203.823H224.53C224.53 203.823 223.161 201.455 222.655 201.949C222.175 202.454 224.456 198.126 224.456 198.126Z" fill="#FFE5B6"/>
<path d="M156.765 235.171C163.83 228.107 163.83 216.652 156.765 209.587C149.7 202.523 138.246 202.522 131.181 209.587C124.116 216.652 124.116 228.107 131.181 235.171C138.246 242.236 149.7 242.236 156.765 235.171Z" fill="#1A1A1A"/>
<path d="M152.129 222.383C152.129 226.884 148.479 230.534 143.978 230.534C139.476 230.534 135.826 226.884 135.826 222.383C135.826 217.882 139.476 214.231 143.978 214.231C148.479 214.231 152.129 217.882 152.129 222.383Z" fill="#9E9DA2"/>
<path d="M247.827 222.828C248.076 212.84 240.182 204.54 230.193 204.291C220.205 204.041 211.906 211.936 211.656 221.924C211.406 231.912 219.301 240.212 229.29 240.461C239.278 240.711 247.577 232.816 247.827 222.828Z" fill="#1A1A1A"/>
<path d="M237.897 222.383C237.897 226.884 234.247 230.534 229.746 230.534C225.245 230.534 221.595 226.884 221.595 222.383C221.595 217.882 225.245 214.231 229.746 214.231C234.247 214.231 237.897 217.882 237.897 222.383Z" fill="#9E9DA2"/>
<path d="M165.571 219.719H122.829C120.745 219.719 119.067 218.029 119.067 215.958V212.085C119.067 210.001 120.757 208.324 122.829 208.324H165.571V219.719Z" fill="white"/>
<path d="M173.759 186.99H138.169C136.812 186.99 135.715 185.893 135.715 184.536V182.649C135.715 181.293 136.812 180.195 138.169 180.195H173.759C175.115 180.195 176.213 181.293 176.213 182.649V184.536C176.213 185.893 175.115 186.99 173.759 186.99Z" fill="#FC8019"/>
<path d="M174.795 186.349C174.795 186.349 171.551 188.137 168.937 195.622C166.323 203.108 166.878 214.404 183.168 215.279H208.189L210.68 210.889C210.68 210.889 208.559 181.022 203.688 167.789H211.926C211.926 167.789 214.417 193.218 223.148 196.646C223.987 196.979 224.529 197.793 224.529 198.705V203.737L211.297 220.841H167.741C167.741 220.841 157.505 221.741 155.014 204.366L125.48 203.909C123.864 203.885 122.717 202.319 123.186 200.765C124.111 197.768 125.985 193.538 129.389 192.601C134.79 191.134 174.795 186.349 174.795 186.349Z" fill="#1F1F1F"/>
<path d="M127.083 193.588C127.12 193.649 127.169 193.723 127.206 193.785H169.64L170.072 192.786C172.402 187.668 174.795 186.349 174.795 186.349H131.276C127.564 186.349 125.184 190.394 127.083 193.588Z" fill="white"/>
<path d="M124.506 208.324H156.211C159.615 208.324 162.007 204.97 160.897 201.751C159.208 196.893 155.286 191.664 145.618 190.776C133.138 189.617 125.591 199.593 122.594 205.13C121.818 206.561 122.866 208.324 124.506 208.324Z" fill="#FC8019"/>
<path d="M211.309 220.841L221.039 205.118C221.039 205.118 226.034 201.246 235.887 203.244C242.016 204.489 245.629 208.571 247.491 211.494C248.354 212.85 247.392 214.626 245.789 214.626H230.794C226.194 214.626 221.853 216.71 218.967 220.286L218.585 220.767C216.501 223.344 213.369 224.849 210.051 224.849C207.807 224.849 205.649 223.998 204.021 222.457L202.319 220.853H211.309V220.841Z" fill="#FC8019"/>
<path d="M212.604 152.14C212.604 150.821 211.396 149.822 210.101 150.081C204.576 151.166 198.78 155.593 198.78 160.883C198.78 166.174 204.576 170.601 210.101 171.686C211.396 171.945 212.604 170.946 212.604 169.627V152.14Z" fill="#FC8019"/>
<path d="M212.604 152.19V169.578C216.292 168.406 218.968 164.953 218.968 160.884C218.968 156.802 216.292 153.361 212.604 152.19Z" fill="white"/>
<path d="M149.194 146.27H106.168V172.217H149.194V146.27Z" fill="#FC8019"/>
<path d="M150.107 143.002H105.256V146.27H150.107V143.002Z" fill="white"/>
<path d="M116.614 177.47C116.614 177.963 116.219 178.358 115.726 178.358C115.233 178.358 114.838 177.963 114.838 177.47C114.838 176.977 115.233 176.582 115.726 176.582C116.219 176.582 116.614 176.977 116.614 177.47Z" fill="#282828"/>
<path d="M153.794 198.644H133.311C133.076 198.644 132.879 198.447 132.879 198.212V197.879C132.879 197.645 133.076 197.448 133.311 197.448H153.794C154.028 197.448 154.225 197.645 154.225 197.879V198.212C154.213 198.459 154.028 198.644 153.794 198.644Z" fill="#333333"/>
<path d="M153.794 201.653H133.311C133.076 201.653 132.879 201.455 132.879 201.221V200.888C132.879 200.654 133.076 200.456 133.311 200.456H153.794C154.028 200.456 154.225 200.654 154.225 200.888V201.221C154.213 201.455 154.028 201.653 153.794 201.653Z" fill="#333333"/>
<path d="M190.901 199.581L189.335 216.377L188.003 218.794L185.586 217.055L185.635 199.149L190.901 199.581Z" fill="#FFC0BB"/>
<path d="M199.977 198.002L199.2 216.377L197.856 218.794L195.438 217.055L195.488 199.149L199.977 198.002Z" fill="#FFC0BB"/>
<path d="M205.353 219.941L194.92 219.978C194.834 219.978 194.772 219.916 194.772 219.83V219.041C194.772 218.954 194.834 218.893 194.92 218.893L205.353 218.856C205.44 218.856 205.501 218.917 205.501 219.004V219.793C205.501 219.879 205.44 219.941 205.353 219.941Z" fill="#DAEEF7"/>
<path d="M195.253 215.612L194.908 218.609C194.871 218.979 195.068 219.312 195.339 219.312L204.786 219.275C205.032 219.275 205.279 219.115 205.402 218.831C205.538 218.535 205.563 218.091 205.131 217.499C204.28 216.303 201.505 216.019 200.136 215.008L195.734 215.021C195.5 215.033 195.302 215.279 195.253 215.612Z" fill="#FC8019"/>
<path d="M199.496 216.772C199.422 216.735 199.397 216.611 199.447 216.525C199.632 216.118 200.211 215.107 201.383 215.316C201.457 215.329 201.494 215.415 201.481 215.514C201.469 215.6 201.407 215.662 201.346 215.649C200.285 215.477 199.792 216.352 199.644 216.698C199.619 216.772 199.545 216.796 199.496 216.772Z" fill="#DAEEF7"/>
<path d="M200.47 217.154C200.396 217.117 200.371 216.994 200.42 216.907C200.605 216.5 201.185 215.489 202.356 215.699C202.43 215.711 202.467 215.797 202.455 215.896C202.443 215.982 202.381 216.044 202.319 216.032C201.259 215.859 200.765 216.735 200.618 217.08C200.593 217.154 200.531 217.179 200.47 217.154Z" fill="#DAEEF7"/>
<path d="M201.383 217.511C201.309 217.474 201.284 217.351 201.333 217.265C201.518 216.858 202.098 215.847 203.269 216.056C203.343 216.069 203.38 216.155 203.368 216.254C203.356 216.34 203.294 216.402 203.232 216.389C202.172 216.217 201.679 217.092 201.531 217.437C201.506 217.511 201.444 217.536 201.383 217.511Z" fill="#DAEEF7"/>
<path opacity="0.3" d="M197.867 219.312C197.115 216.895 195.833 216.624 195.13 216.685L194.908 218.621C194.871 218.991 195.068 219.324 195.339 219.324L197.867 219.312Z" fill="#E87B50"/>
<path d="M153.794 204.649H133.311C133.076 204.649 132.879 204.452 132.879 204.218V203.885C132.879 203.65 133.076 203.453 133.311 203.453H153.794C154.028 203.453 154.225 203.65 154.225 203.885V204.218C154.213 204.452 154.028 204.649 153.794 204.649Z" fill="#333333"/>
<path d="M193.355 174.856C194.588 174.954 199.718 177.038 200.384 180.75C201.05 184.462 200.384 213.257 200.384 213.257H194.687C194.687 213.257 190.124 190.443 190.124 189.777C190.124 189.111 193.355 174.856 193.355 174.856Z" fill="#1B1B1B"/>
<path d="M154.201 166.593C154.3 166.877 152.943 179.616 165.929 180.664C178.914 181.712 186.424 183.426 186.424 183.426C186.424 183.426 184.624 212.221 184.71 213.652C184.71 213.652 189.174 214.416 191.073 214.133C191.073 214.133 201.247 182.193 198.3 175.633C195.352 169.072 171.873 166.606 171.873 166.606H154.201V166.593Z" fill="#1F1F1F"/>
<path d="M175.806 143.693C175.806 143.693 175.942 149.896 176.349 150.463C176.756 151.043 196.438 158.553 196.438 158.553L193.207 162.203L178.717 158.06C178.717 158.06 168.333 154.335 168.444 154.064C168.555 153.793 169.122 149.982 169.64 148.49C170.158 146.998 172.094 143.619 172.094 143.619L175.806 143.693Z" fill="#FFA552"/>
<path d="M168.556 122.063C168.556 122.063 155.41 126.835 153.918 152.782L153.276 167.543C153.276 167.543 168.247 173.955 176.806 168.394C176.806 168.394 177.669 142.053 178.569 132.434C178.717 130.806 178.063 129.215 176.806 128.18C173.932 125.799 169.036 121.841 168.556 122.063Z" fill="#FC8019"/>
<path d="M163.993 140.499C163.993 140.499 160.774 153.781 165.275 157.431C168.074 159.712 194.206 164.176 194.206 164.176L195.895 160.107C195.895 160.107 175.091 152.683 173.846 151.82C172.6 150.957 174.684 139.599 174.684 139.599L163.993 140.499Z" fill="#FFAD61"/>
<path d="M174.154 126.86C172.982 125.812 171.293 125.541 169.838 126.157C167.828 127.008 164.954 129.413 163.401 136.195L162.081 142.041C162.081 142.041 171.848 144.433 174.845 144.297L176.374 135.258C176.374 135.258 177.249 129.61 174.154 126.86Z" fill="#1F1F1F"/>
<path d="M142.177 143.002H134.186L119.19 172.204C120.498 172.204 124.567 172.204 127.194 172.204L142.177 143.002Z" fill="#333333"/>
<path d="M132.115 161.463L126.75 158.713C125.924 158.294 125.604 157.282 126.023 156.456L127.601 153.386C128.021 152.559 129.032 152.239 129.858 152.658L135.222 155.408C136.049 155.827 136.369 156.839 135.95 157.665L134.371 160.735C133.952 161.562 132.941 161.882 132.115 161.463ZM129.414 153.521C129.069 153.349 128.649 153.484 128.477 153.817L126.898 156.888C126.726 157.233 126.861 157.652 127.194 157.825L132.559 160.575C132.904 160.748 133.323 160.612 133.496 160.279L135.074 157.209C135.247 156.863 135.111 156.444 134.778 156.271L129.414 153.521Z" fill="#FFE5B6"/>
<path d="M172.81 112.284C173.476 113.726 172.933 115.342 171.613 115.897C170.294 116.452 168.678 115.737 168.013 114.294C167.347 112.851 167.889 111.235 169.209 110.68C170.528 110.126 172.144 110.841 172.81 112.284Z" fill="#FFC0BB"/>
<path d="M195.254 219.941L184.821 219.978C184.735 219.978 184.673 219.916 184.673 219.83V219.041C184.673 218.954 184.735 218.893 184.821 218.893L195.254 218.856C195.34 218.856 195.402 218.917 195.402 219.004V219.793C195.402 219.879 195.34 219.941 195.254 219.941Z" fill="#DAEEF7"/>
<path d="M185.153 215.612L184.808 218.609C184.771 218.979 184.968 219.312 185.24 219.312L194.686 219.275C194.933 219.275 195.179 219.115 195.303 218.831C195.438 218.535 195.463 218.091 195.031 217.499C194.18 216.303 191.406 216.019 190.037 215.008L185.634 215.021C185.4 215.033 185.19 215.279 185.153 215.612Z" fill="#FC8019"/>
<path d="M189.396 216.772C189.322 216.735 189.298 216.611 189.347 216.525C189.532 216.118 190.112 215.107 191.283 215.316C191.357 215.329 191.394 215.415 191.382 215.514C191.369 215.6 191.308 215.662 191.246 215.649C190.186 215.477 189.692 216.352 189.544 216.698C189.52 216.772 189.446 216.796 189.396 216.772Z" fill="#DAEEF7"/>
<path d="M190.37 217.154C190.296 217.117 190.271 216.994 190.321 216.907C190.506 216.5 191.085 215.489 192.257 215.699C192.331 215.711 192.368 215.797 192.355 215.896C192.343 215.982 192.281 216.044 192.22 216.032C191.159 215.859 190.666 216.735 190.518 217.08C190.493 217.154 190.432 217.179 190.37 217.154Z" fill="#DAEEF7"/>
<path d="M191.283 217.511C191.209 217.474 191.184 217.351 191.234 217.265C191.419 216.858 191.998 215.847 193.17 216.056C193.244 216.069 193.281 216.155 193.268 216.254C193.256 216.34 193.194 216.402 193.133 216.389C192.072 216.217 191.579 217.092 191.431 217.437C191.406 217.511 191.345 217.536 191.283 217.511Z" fill="#DAEEF7"/>
<path opacity="0.3" d="M187.768 219.312C187.016 216.895 185.733 216.624 185.03 216.685L184.808 218.621C184.771 218.991 184.968 219.324 185.24 219.324L187.768 219.312Z" fill="#E87B50"/>
<path d="M213.678 225.268H160.934C159.689 225.268 158.678 224.257 158.678 223.012V221.273C158.678 220.027 159.689 219.016 160.934 219.016H213.678C214.923 219.016 215.935 220.027 215.935 221.273V223.012C215.922 224.257 214.923 225.268 213.678 225.268Z" fill="white"/>
<path opacity="0.8" d="M134.309 240.646H99.361C99.361 240.646 83.3789 235.701 99.361 235.874C99.361 235.874 89.9641 228.881 104.183 230.546C118.414 232.211 119.746 236.453 119.746 236.453C119.746 236.453 122.57 231.434 134.309 240.646Z" fill="white"/>
<path opacity="0.8" d="M180.171 240.535L202.899 240.375C202.899 240.375 190.481 233.222 188.73 236.342C188.73 236.342 166.73 231.792 180.171 240.535Z" fill="white"/>
<path opacity="0.8" d="M251.511 240.56H211.655C211.655 240.56 208.091 236.281 215.934 237.835C215.934 237.835 210.853 231.286 222.605 233.913L229.745 236.305C229.745 236.305 218.079 221.556 231.176 226.674C244.272 231.792 251.511 240.56 251.511 240.56Z" fill="white"/>
<path opacity="0.8" d="M157.592 240.535H147.061C147.061 240.535 145.692 237.538 149.527 239.043C149.527 239.043 144.36 228.968 157.592 240.535Z" fill="white"/>
<path d="M182.811 118.61L182.293 120.62C182.293 120.62 177.78 116.97 177.817 116.896C177.854 116.822 178.631 115.527 178.976 115.626C179.309 115.737 182.133 116.822 182.133 116.896C182.133 116.97 182.811 118.61 182.811 118.61Z" fill="white"/>
<path d="M179.654 117.229C181.023 118.561 182.367 118.844 182.971 118.894C183.168 118.203 183.292 117.697 183.292 117.697C183.292 117.697 184.809 117.229 185.289 116.686C185.289 116.686 183.76 114.59 183.736 113.603C183.711 112.617 185.24 106.722 180.998 103.38C176.756 100.038 174.228 106.031 174.228 106.031L172.427 112.234L169.961 115.983C169.961 115.983 170.553 119.375 173.919 121.767C177.286 124.159 181.01 123.247 181.639 122.951C181.8 122.877 182.243 121.409 182.638 120.053C180.455 119.288 179.654 117.229 179.654 117.229Z" fill="#FFAD61"/>
<path d="M180.443 113.418C180.628 113.726 181.035 113.837 181.356 113.665C181.677 113.492 181.8 113.098 181.615 112.789C181.43 112.481 181.023 112.37 180.702 112.543C180.382 112.715 180.271 113.11 180.443 113.418Z" fill="#333333"/>
<path d="M179.481 112.234C179.716 112.037 179.95 111.864 180.184 111.716C180.419 111.568 180.678 111.457 180.937 111.383C181.196 111.309 181.467 111.26 181.738 111.272H181.849C181.886 111.272 181.923 111.272 181.96 111.272L182.17 111.285C182.318 111.297 182.453 111.322 182.614 111.322C182.49 111.235 182.367 111.149 182.231 111.087C182.083 111.038 181.948 110.964 181.787 110.952C181.479 110.878 181.146 110.903 180.826 111.001C180.505 111.087 180.221 111.26 179.987 111.482C179.765 111.679 179.58 111.938 179.481 112.234Z" fill="#333333"/>
<path d="M174.93 108.942C174.93 108.942 173.438 110.2 173.068 116.008C172.785 120.509 169.011 121.237 169.085 121.212C169.159 121.187 170.146 111.322 170.331 110.989C170.516 110.656 171.786 106.907 171.983 106.808C172.18 106.71 174.745 108.387 174.893 108.436C175.041 108.473 174.93 108.942 174.93 108.942Z" fill="#1F1F1F"/>
<path d="M186.88 104.811C186.88 104.811 185.364 94.8465 172.575 95.3891C159.787 95.9317 160.207 110.755 160.207 110.755C160.207 110.755 159.689 121.496 167.347 121.496C167.347 121.496 172.526 121.829 172.526 115.367C172.526 109.114 174.425 109.114 174.425 109.114L186.88 104.811Z" fill="#FC8019"/>
<path opacity="0.5" d="M163.006 100.544C160.047 105.008 160.219 110.742 160.219 110.742C160.219 110.742 159.701 121.483 167.359 121.483C167.359 121.483 172.403 121.804 172.539 115.601C165.497 113.122 163.241 106.944 163.006 100.544Z" fill="#FC8019"/>
<path d="M168.605 117.451C168.605 118.252 167.951 118.906 167.15 118.906C166.348 118.906 165.694 118.252 165.694 117.451C165.694 116.649 166.348 115.995 167.15 115.995C167.951 116.008 168.605 116.649 168.605 117.451Z" fill="white"/>
<path d="M174.425 109.114C174.807 108.979 184.562 108.226 189.137 107.881C189.914 107.819 190.197 106.808 189.556 106.364L186.88 104.502L174.425 109.114Z" fill="#1F1F1F"/>
<path d="M174.425 109.114C174.856 108.966 184.377 105.809 187.127 104.909C187.521 104.774 187.719 104.342 187.558 103.96L187.188 103.096C187.028 102.714 186.559 102.554 186.202 102.751L174.425 109.114Z" fill="white"/>
<path d="M193.49 159.675C193.49 159.675 196.721 157.714 198.127 157.714C199.533 157.714 202.48 158.553 202.48 159.959C202.48 161.364 201.641 162.203 201.641 162.203L198.793 164.657C198.793 164.657 197.436 165.705 196.869 165.15C196.302 164.595 194.624 165.286 191.837 163.757C189.112 162.252 191.665 161.364 192.084 160.945C192.503 160.526 193.49 159.675 193.49 159.675Z" fill="#FFAD61"/>
<path d="M202.443 161.747C202.443 163.399 201.111 164.731 199.459 164.731C197.806 164.731 196.475 163.399 196.475 161.747C196.475 160.094 197.806 158.762 199.459 158.762C201.099 158.762 202.443 160.107 202.443 161.747Z" fill="#1A1A1A"/>
<path d="M336.947 244.074H24.4208C23.7056 244.074 23.126 243.495 23.126 242.779V241.781C23.126 241.065 23.7056 240.486 24.4208 240.486H336.947C337.663 240.486 338.242 241.065 338.242 241.781V242.779C338.242 243.495 337.663 244.074 336.947 244.074Z" fill="#007BFF"/>
<path d="M276.657 221.162C273.266 221.223 269.911 220.298 267.063 218.436C264.781 216.944 262.636 214.749 262.241 211.641C261.341 204.551 265.423 204.785 266.422 201.899C267.42 199.014 264.448 197.719 265.731 192.453C266.422 189.629 268.604 188.396 271.996 183.858C275.387 179.32 279.506 176.989 282.515 178.678C285.524 180.368 285.4 184.018 287.632 185.227C289.864 186.435 293.293 190.677 291.986 198.73C290.678 206.783 299.533 203.786 296.067 213.097C293.527 219.941 282.416 221.051 276.657 221.162Z" fill="#70C0FD"/>
<path d="M280.701 215.07C280.381 219.546 279.925 237.366 280.59 238.92C281.589 241.226 276.336 238.352 276.336 238.352C276.336 238.352 277.73 227.71 278.543 222.518C278.901 220.2 279.567 213.245 279.567 212.64C279.542 212.591 279.505 212.529 279.481 212.48C278.309 210.273 275.867 207.967 272.266 206.647C275.029 207.35 277.619 208.743 279.53 210.889C279.481 210.112 279.37 209.496 279.209 209.089C278.679 207.819 277.754 206.289 275.177 204.39C274.647 204.008 274.104 203.65 273.524 203.342C273.241 203.194 272.932 203.046 272.636 202.923C272.328 202.799 272.02 202.689 271.699 202.602C272.032 202.652 272.353 202.713 272.686 202.787C273.006 202.873 273.327 202.972 273.648 203.083C274.277 203.317 274.893 203.601 275.485 203.922C275.855 204.131 276.225 204.341 276.595 204.575C275.041 201.517 273.524 197.053 274.153 191.109C274.153 191.109 274.326 195.104 275.312 198.755C275.473 198.163 275.695 197.595 275.954 197.053C276.533 195.881 276.866 195.462 277.384 194.747C277.569 194.512 277.766 194.278 277.951 194.044C277.791 194.303 277.631 194.549 277.471 194.808C277.051 195.561 276.78 196.017 276.348 197.213C276.163 197.768 276.015 198.335 275.929 198.903C275.806 199.865 275.867 200.555 275.867 200.555C276.065 201.073 276.274 201.566 276.521 202.023C278.062 204.933 279.925 207.017 280.714 208.719C281.01 208.164 281.318 207.621 281.614 207.066C282.268 205.907 282.946 204.748 283.649 203.613C283.76 203.428 283.883 203.243 283.994 203.058C284.265 202.245 284.438 201.283 284.524 200.456C284.635 199.408 284.635 198.841 284.623 197.978C284.734 198.829 284.783 199.408 284.783 200.481C284.783 200.9 284.759 201.32 284.722 201.739C284.722 201.813 284.709 201.875 284.697 201.949L284.709 201.936C285.079 201.381 285.449 200.826 285.832 200.284C286.214 199.741 286.621 199.199 287.028 198.681C287.447 198.163 287.879 197.657 288.36 197.188C287.916 197.694 287.521 198.224 287.139 198.767C286.756 199.31 286.399 199.877 286.054 200.444C285.708 201.011 285.375 201.579 285.042 202.158C284.722 202.738 284.401 203.317 284.093 203.909C284.056 203.983 284.019 204.057 283.969 204.131C284.105 204.094 284.302 204.045 284.722 203.946C286.325 203.589 287.644 203.502 288.828 203.428C287.731 203.601 286.423 203.811 284.82 204.329C284.426 204.452 284.019 204.6 283.636 204.76C283.18 205.66 282.736 206.561 282.292 207.461C282.009 208.065 281.725 208.657 281.454 209.261C281.343 209.508 281.182 209.73 281.133 209.989C280.973 210.951 280.701 215.07 280.701 215.07Z" fill="white"/>
<path d="M27.0469 240.535C27.0469 240.535 30.1175 235.898 35.7038 236.897C35.7038 236.897 38.7868 230.361 47.3205 230.287C55.9774 230.213 57.6176 236.243 57.6176 236.243C57.6176 236.243 60.084 234.159 65.6703 236.305C71.2566 238.439 73.2297 242.298 73.2297 242.298L27.0469 240.535Z" fill="#007BFF"/>
<path d="M313.085 232.84C313.085 232.84 312.727 226.92 307.572 227.463C307.572 227.463 300.556 216.278 293.218 232.063C293.218 232.063 286.584 228.474 284.142 236.268C284.142 236.268 280.06 228.659 274.252 231.175C268.443 233.691 266.458 240.621 266.458 240.621L309.336 241.534L313.085 232.84Z" fill="#70C0FD"/>
<path d="M336.183 240.535C336.183 240.535 333.112 235.898 327.526 236.897C327.526 236.897 324.443 230.361 315.909 230.287C307.252 230.213 305.612 236.243 305.612 236.243C305.612 236.243 303.146 234.159 297.559 236.305C291.973 238.439 290 242.298 290 242.298L336.183 240.535Z" fill="#007BFF"/>
<path d="M302.911 205.993C299.693 204.341 296.992 201.603 296.018 198.261C295.081 195.03 295.808 191.602 296.598 188.346C296.943 186.916 297.288 185.387 296.733 184.018C296.388 183.167 295.722 182.476 295.118 181.761C289.914 175.632 288.73 167.222 289.383 159.379C289.568 157.196 289.889 154.976 290.974 153.053C292.059 151.129 294.033 149.526 296.326 149.378C299.866 149.143 303.244 152.276 306.623 151.227C309.04 150.475 310.261 147.873 312.456 146.64C314.294 145.604 316.575 145.666 318.709 145.764C319.387 145.789 320.065 145.826 320.694 146.073C322.112 146.628 322.827 148.108 323.271 149.489C323.999 151.733 324.357 154.064 325.084 156.308C325.812 158.553 326.971 160.76 328.944 162.178C330.523 163.325 332.471 163.868 334.259 164.706C338.649 166.778 341.856 170.613 344.223 174.695C344.938 175.916 345.592 177.174 345.95 178.53C347.084 182.772 344.889 187.631 340.857 189.765C339.352 190.554 337.663 190.998 336.171 191.799C332.742 193.637 330.745 197.127 328.784 200.358C326.823 203.601 324.455 206.968 320.768 208.262C315.724 210.001 307.499 208.336 302.911 205.993Z" fill="#70C0FD"/>
<path d="M338.513 184.499C337.712 184.388 336.91 184.326 336.109 184.289C335.307 184.252 334.493 184.265 333.691 184.289C333.47 184.302 333.248 184.302 333.026 184.314C334.049 183.821 335.06 183.278 336.022 182.6C337.058 181.872 338.045 180.997 338.822 179.875C337.983 180.923 336.972 181.7 335.911 182.316C334.851 182.945 333.728 183.426 332.606 183.833C331.57 184.215 330.522 184.536 329.474 184.832C329.634 184.548 329.782 184.265 329.906 183.969C330.202 183.315 330.448 182.625 330.621 181.909C330.806 181.194 330.917 180.466 330.966 179.739C331.015 179.011 331.003 178.271 330.941 177.544C330.941 178.271 330.892 178.999 330.781 179.702C330.67 180.405 330.498 181.095 330.276 181.749C330.054 182.403 329.77 183.031 329.437 183.599C329.277 183.882 329.104 184.166 328.907 184.425C328.759 184.635 328.487 185.017 328.29 185.128C327.427 185.362 326.551 185.572 325.688 185.794C322.913 186.509 319.017 187.422 314.725 191.097C314.54 188.951 314.355 186.497 314.219 184.783C314.108 183.315 314.195 181.848 314.478 180.417C314.478 180.405 314.478 180.405 314.478 180.392C314.774 178.925 315.083 177.445 315.403 175.978C315.897 173.758 316.402 171.538 316.945 169.331C318.042 164.694 317.783 164.09 317.882 163.029C317.907 162.746 317.907 162.45 317.882 162.166C317.882 162.154 317.882 162.141 317.882 162.117C317.808 161.155 317.697 160.205 317.561 159.256C317.216 156.851 316.908 155.581 316.439 153.682C316.76 155.63 316.945 156.925 317.093 159.317C317.142 160.267 317.167 161.204 317.167 162.154C317.167 162.622 317.154 163.091 317.13 163.559C317.117 163.794 317.105 164.028 317.093 164.262C317.08 164.373 317.08 164.497 317.068 164.608C317.068 164.682 316.674 166.334 316.526 166.803C315.625 169.651 314.774 172.525 313.96 175.423C313.578 176.779 313.208 178.136 312.851 179.505C312.851 179.505 312.666 180.133 312.481 181.342C312.394 181.083 311.691 179.122 311.346 178.321C309.62 174.251 307.869 170.774 304.995 166.605C303.885 165.002 303.75 164.854 302.282 162.955C304.095 165.631 303.565 164.817 304.798 166.803C307.425 171.131 308.991 174.732 310.483 178.826C311.026 180.454 311.309 181.268 311.852 183.414C311.913 183.673 311.987 183.932 312.037 184.191C312.074 184.339 312.098 184.487 312.135 184.622C312.012 186.632 312.098 188.655 312.333 190.653C312.431 191.466 313.381 206.104 313.492 211.469C313.739 223.517 311.605 237.156 311.605 237.156C311.605 237.156 324.356 241.127 321.767 236.33C320.028 233.111 315.86 204.02 314.947 193.797C315.021 193.723 315.083 193.649 315.157 193.575C319.029 189.382 323.061 188.014 325.922 187.002C327.242 186.546 328.574 186.09 329.893 185.597C330.67 185.436 332.927 185.029 333.716 184.918C334.505 184.82 335.307 184.746 336.096 184.696C336.898 184.659 337.687 184.647 338.489 184.684C339.29 184.733 340.079 184.82 340.869 185.005C340.116 184.783 339.315 184.622 338.513 184.499Z" fill="#007BFF"/>
</svg>
