<svg width="306" height="258" viewBox="0 0 306 258" fill="none" xmlns="http://www.w3.org/2000/svg">
<path d="M19.3132 257H13.1273L6.57912 247.08V257H0.39322V237.272H6.57912L13.1273 247.359V237.272H19.3132V257ZM31.7211 257.195C29.8635 257.195 28.1544 256.759 26.594 255.885C25.0522 255.012 23.8262 253.805 22.9159 252.263C22.0057 250.721 21.5506 248.984 21.5506 247.052C21.5506 245.12 22.0057 243.384 22.9159 241.842C23.8262 240.3 25.0522 239.102 26.594 238.247C28.1544 237.374 29.8635 236.938 31.7211 236.938C33.5787 236.938 35.2784 237.374 36.8203 238.247C38.3621 239.102 39.5788 240.3 40.4705 241.842C41.3807 243.384 41.8359 245.12 41.8359 247.052C41.8359 248.984 41.3807 250.721 40.4705 252.263C39.5788 253.805 38.3528 255.012 36.7924 255.885C35.2506 256.759 33.5601 257.195 31.7211 257.195ZM31.7211 251.427C32.9471 251.427 33.8945 251.037 34.5633 250.257C35.232 249.458 35.5664 248.39 35.5664 247.052C35.5664 245.696 35.232 244.628 34.5633 243.848C33.8945 243.049 32.9471 242.65 31.7211 242.65C30.4765 242.65 29.5198 243.049 28.8511 243.848C28.1823 244.628 27.8479 245.696 27.8479 247.052C27.8479 248.39 28.1823 249.458 28.8511 250.257C29.5198 251.037 30.4765 251.427 31.7211 251.427ZM53.6806 257.195C51.823 257.195 50.114 256.759 48.5536 255.885C47.0118 255.012 45.7857 253.805 44.8755 252.263C43.9652 250.721 43.5101 248.984 43.5101 247.052C43.5101 245.12 43.9652 243.384 44.8755 241.842C45.7857 240.3 47.0118 239.102 48.5536 238.247C50.114 237.374 51.823 236.938 53.6806 236.938C55.5383 236.938 57.238 237.374 58.7798 238.247C60.3217 239.102 61.5384 240.3 62.4301 241.842C63.3403 243.384 63.7954 245.12 63.7954 247.052C63.7954 248.984 63.3403 250.721 62.4301 252.263C61.5384 253.805 60.3124 255.012 58.752 255.885C57.2101 256.759 55.5197 257.195 53.6806 257.195ZM53.6806 251.427C54.9067 251.427 55.8541 251.037 56.5228 250.257C57.1916 249.458 57.5259 248.39 57.5259 247.052C57.5259 245.696 57.1916 244.628 56.5228 243.848C55.8541 243.049 54.9067 242.65 53.6806 242.65C52.436 242.65 51.4793 243.049 50.8106 243.848C50.1419 244.628 49.8075 245.696 49.8075 247.052C49.8075 248.39 50.1419 249.458 50.8106 250.257C51.4793 251.037 52.436 251.427 53.6806 251.427ZM75.6402 257.195C73.7826 257.195 72.0735 256.759 70.5131 255.885C68.9713 255.012 67.7453 253.805 66.835 252.263C65.9248 250.721 65.4697 248.984 65.4697 247.052C65.4697 245.12 65.9248 243.384 66.835 241.842C67.7453 240.3 68.9713 239.102 70.5131 238.247C72.0735 237.374 73.7826 236.938 75.6402 236.938C77.4978 236.938 79.1975 237.374 80.7394 238.247C82.2812 239.102 83.4979 240.3 84.3896 241.842C85.2998 243.384 85.755 245.12 85.755 247.052C85.755 248.984 85.2998 250.721 84.3896 252.263C83.4979 253.805 82.2719 255.012 80.7115 255.885C79.1697 256.759 77.4792 257.195 75.6402 257.195ZM75.6402 251.427C76.8662 251.427 77.8136 251.037 78.4824 250.257C79.1511 249.458 79.4855 248.39 79.4855 247.052C79.4855 245.696 79.1511 244.628 78.4824 243.848C77.8136 243.049 76.8662 242.65 75.6402 242.65C74.3956 242.65 73.4389 243.049 72.7702 243.848C72.1014 244.628 71.767 245.696 71.767 247.052C71.767 248.39 72.1014 249.458 72.7702 250.257C73.4389 251.037 74.3956 251.427 75.6402 251.427ZM97.5997 257.195C95.7421 257.195 94.0331 256.759 92.4727 255.885C90.9308 255.012 89.7048 253.805 88.7946 252.263C87.8843 250.721 87.4292 248.984 87.4292 247.052C87.4292 245.12 87.8843 243.384 88.7946 241.842C89.7048 240.3 90.9308 239.102 92.4727 238.247C94.0331 237.374 95.7421 236.938 97.5997 236.938C99.4574 236.938 101.157 237.374 102.699 238.247C104.241 239.102 105.457 240.3 106.349 241.842C107.259 243.384 107.715 245.12 107.715 247.052C107.715 248.984 107.259 250.721 106.349 252.263C105.457 253.805 104.231 255.012 102.671 255.885C101.129 256.759 99.4388 257.195 97.5997 257.195ZM97.5997 251.427C98.8258 251.427 99.7731 251.037 100.442 250.257C101.111 249.458 101.445 248.39 101.445 247.052C101.445 245.696 101.111 244.628 100.442 243.848C99.7731 243.049 98.8258 242.65 97.5997 242.65C96.3551 242.65 95.3984 243.049 94.7297 243.848C94.0609 244.628 93.7266 245.696 93.7266 247.052C93.7266 248.39 94.0609 249.458 94.7297 250.257C95.3984 251.037 96.3551 251.427 97.5997 251.427ZM119.559 257.195C117.702 257.195 115.993 256.759 114.432 255.885C112.89 255.012 111.664 253.805 110.754 252.263C109.844 250.721 109.389 248.984 109.389 247.052C109.389 245.12 109.844 243.384 110.754 241.842C111.664 240.3 112.89 239.102 114.432 238.247C115.993 237.374 117.702 236.938 119.559 236.938C121.417 236.938 123.117 237.374 124.658 238.247C126.2 239.102 127.417 240.3 128.309 241.842C129.219 243.384 129.674 245.12 129.674 247.052C129.674 248.984 129.219 250.721 128.309 252.263C127.417 253.805 126.191 255.012 124.631 255.885C123.089 256.759 121.398 257.195 119.559 257.195ZM119.559 251.427C120.785 251.427 121.733 251.037 122.401 250.257C123.07 249.458 123.405 248.39 123.405 247.052C123.405 245.696 123.07 244.628 122.401 243.848C121.733 243.049 120.785 242.65 119.559 242.65C118.315 242.65 117.358 243.049 116.689 243.848C116.02 244.628 115.686 245.696 115.686 247.052C115.686 248.39 116.02 249.458 116.689 250.257C117.358 251.037 118.315 251.427 119.559 251.427ZM141.519 257.195C139.661 257.195 137.952 256.759 136.392 255.885C134.85 255.012 133.624 253.805 132.714 252.263C131.803 250.721 131.348 248.984 131.348 247.052C131.348 245.12 131.803 243.384 132.714 241.842C133.624 240.3 134.85 239.102 136.392 238.247C137.952 237.374 139.661 236.938 141.519 236.938C143.376 236.938 145.076 237.374 146.618 238.247C148.16 239.102 149.377 240.3 150.268 241.842C151.178 243.384 151.634 245.12 151.634 247.052C151.634 248.984 151.178 250.721 150.268 252.263C149.377 253.805 148.151 255.012 146.59 255.885C145.048 256.759 143.358 257.195 141.519 257.195ZM141.519 251.427C142.745 251.427 143.692 251.037 144.361 250.257C145.03 249.458 145.364 248.39 145.364 247.052C145.364 245.696 145.03 244.628 144.361 243.848C143.692 243.049 142.745 242.65 141.519 242.65C140.274 242.65 139.318 243.049 138.649 243.848C137.98 244.628 137.646 245.696 137.646 247.052C137.646 248.39 137.98 249.458 138.649 250.257C139.318 251.037 140.274 251.427 141.519 251.427ZM163.478 257.195C161.621 257.195 159.912 256.759 158.351 255.885C156.809 255.012 155.583 253.805 154.673 252.263C153.763 250.721 153.308 248.984 153.308 247.052C153.308 245.12 153.763 243.384 154.673 241.842C155.583 240.3 156.809 239.102 158.351 238.247C159.912 237.374 161.621 236.938 163.478 236.938C165.336 236.938 167.036 237.374 168.578 238.247C170.119 239.102 171.336 240.3 172.228 241.842C173.138 243.384 173.593 245.12 173.593 247.052C173.593 248.984 173.138 250.721 172.228 252.263C171.336 253.805 170.11 255.012 168.55 255.885C167.008 256.759 165.317 257.195 163.478 257.195ZM163.478 251.427C164.704 251.427 165.652 251.037 166.321 250.257C166.989 249.458 167.324 248.39 167.324 247.052C167.324 245.696 166.989 244.628 166.321 243.848C165.652 243.049 164.704 242.65 163.478 242.65C162.234 242.65 161.277 243.049 160.608 243.848C159.94 244.628 159.605 245.696 159.605 247.052C159.605 248.39 159.94 249.458 160.608 250.257C161.277 251.037 162.234 251.427 163.478 251.427ZM185.438 257.195C183.58 257.195 181.871 256.759 180.311 255.885C178.769 255.012 177.543 253.805 176.633 252.263C175.723 250.721 175.267 248.984 175.267 247.052C175.267 245.12 175.723 243.384 176.633 241.842C177.543 240.3 178.769 239.102 180.311 238.247C181.871 237.374 183.58 236.938 185.438 236.938C187.296 236.938 188.995 237.374 190.537 238.247C192.079 239.102 193.296 240.3 194.187 241.842C195.098 243.384 195.553 245.12 195.553 247.052C195.553 248.984 195.098 250.721 194.187 252.263C193.296 253.805 192.07 255.012 190.509 255.885C188.967 256.759 187.277 257.195 185.438 257.195ZM185.438 251.427C186.664 251.427 187.611 251.037 188.28 250.257C188.949 249.458 189.283 248.39 189.283 247.052C189.283 245.696 188.949 244.628 188.28 243.848C187.611 243.049 186.664 242.65 185.438 242.65C184.193 242.65 183.237 243.049 182.568 243.848C181.899 244.628 181.565 245.696 181.565 247.052C181.565 248.39 181.899 249.458 182.568 250.257C183.237 251.037 184.193 251.427 185.438 251.427ZM207.397 257.195C205.54 257.195 203.831 256.759 202.27 255.885C200.729 255.012 199.503 253.805 198.592 252.263C197.682 250.721 197.227 248.984 197.227 247.052C197.227 245.12 197.682 243.384 198.592 241.842C199.503 240.3 200.729 239.102 202.27 238.247C203.831 237.374 205.54 236.938 207.397 236.938C209.255 236.938 210.955 237.374 212.497 238.247C214.038 239.102 215.255 240.3 216.147 241.842C217.057 243.384 217.512 245.12 217.512 247.052C217.512 248.984 217.057 250.721 216.147 252.263C215.255 253.805 214.029 255.012 212.469 255.885C210.927 256.759 209.237 257.195 207.397 257.195ZM207.397 251.427C208.623 251.427 209.571 251.037 210.24 250.257C210.908 249.458 211.243 248.39 211.243 247.052C211.243 245.696 210.908 244.628 210.24 243.848C209.571 243.049 208.623 242.65 207.397 242.65C206.153 242.65 205.196 243.049 204.527 243.848C203.859 244.628 203.524 245.696 203.524 247.052C203.524 248.39 203.859 249.458 204.527 250.257C205.196 251.037 206.153 251.427 207.397 251.427ZM229.357 257.195C227.499 257.195 225.79 256.759 224.23 255.885C222.688 255.012 221.462 253.805 220.552 252.263C219.642 250.721 219.187 248.984 219.187 247.052C219.187 245.12 219.642 243.384 220.552 241.842C221.462 240.3 222.688 239.102 224.23 238.247C225.79 237.374 227.499 236.938 229.357 236.938C231.215 236.938 232.914 237.374 234.456 238.247C235.998 239.102 237.215 240.3 238.106 241.842C239.017 243.384 239.472 245.12 239.472 247.052C239.472 248.984 239.017 250.721 238.106 252.263C237.215 253.805 235.989 255.012 234.428 255.885C232.887 256.759 231.196 257.195 229.357 257.195ZM229.357 251.427C230.583 251.427 231.53 251.037 232.199 250.257C232.868 249.458 233.202 248.39 233.202 247.052C233.202 245.696 232.868 244.628 232.199 243.848C231.53 243.049 230.583 242.65 229.357 242.65C228.112 242.65 227.156 243.049 226.487 243.848C225.818 244.628 225.484 245.696 225.484 247.052C225.484 248.39 225.818 249.458 226.487 250.257C227.156 251.037 228.112 251.427 229.357 251.427ZM251.317 257.195C249.459 257.195 247.75 256.759 246.19 255.885C244.648 255.012 243.422 253.805 242.511 252.263C241.601 250.721 241.146 248.984 241.146 247.052C241.146 245.12 241.601 243.384 242.511 241.842C243.422 240.3 244.648 239.102 246.19 238.247C247.75 237.374 249.459 236.938 251.317 236.938C253.174 236.938 254.874 237.374 256.416 238.247C257.958 239.102 259.174 240.3 260.066 241.842C260.976 243.384 261.431 245.12 261.431 247.052C261.431 248.984 260.976 250.721 260.066 252.263C259.174 253.805 257.948 255.012 256.388 255.885C254.846 256.759 253.156 257.195 251.317 257.195ZM251.317 251.427C252.543 251.427 253.49 251.037 254.159 250.257C254.827 249.458 255.162 248.39 255.162 247.052C255.162 245.696 254.827 244.628 254.159 243.848C253.49 243.049 252.543 242.65 251.317 242.65C250.072 242.65 249.115 243.049 248.447 243.848C247.778 244.628 247.443 245.696 247.443 247.052C247.443 248.39 247.778 249.458 248.447 250.257C249.115 251.037 250.072 251.427 251.317 251.427ZM273.276 257.195C271.418 257.195 269.709 256.759 268.149 255.885C266.607 255.012 265.381 253.805 264.471 252.263C263.561 250.721 263.106 248.984 263.106 247.052C263.106 245.12 263.561 243.384 264.471 241.842C265.381 240.3 266.607 239.102 268.149 238.247C269.709 237.374 271.418 236.938 273.276 236.938C275.134 236.938 276.833 237.374 278.375 238.247C279.917 239.102 281.134 240.3 282.026 241.842C282.936 243.384 283.391 245.12 283.391 247.052C283.391 248.984 282.936 250.721 282.026 252.263C281.134 253.805 279.908 255.012 278.347 255.885C276.806 256.759 275.115 257.195 273.276 257.195ZM273.276 251.427C274.502 251.427 275.45 251.037 276.118 250.257C276.787 249.458 277.121 248.39 277.121 247.052C277.121 245.696 276.787 244.628 276.118 243.848C275.45 243.049 274.502 242.65 273.276 242.65C272.031 242.65 271.075 243.049 270.406 243.848C269.737 244.628 269.403 245.696 269.403 247.052C269.403 248.39 269.737 249.458 270.406 250.257C271.075 251.037 272.031 251.427 273.276 251.427ZM295.236 257.195C293.378 257.195 291.669 256.759 290.109 255.885C288.567 255.012 287.341 253.805 286.431 252.263C285.52 250.721 285.065 248.984 285.065 247.052C285.065 245.12 285.52 243.384 286.431 241.842C287.341 240.3 288.567 239.102 290.109 238.247C291.669 237.374 293.378 236.938 295.236 236.938C297.093 236.938 298.793 237.374 300.335 238.247C301.877 239.102 303.093 240.3 303.985 241.842C304.895 243.384 305.35 245.12 305.35 247.052C305.35 248.984 304.895 250.721 303.985 252.263C303.093 253.805 301.867 255.012 300.307 255.885C298.765 256.759 297.075 257.195 295.236 257.195ZM295.236 251.427C296.462 251.427 297.409 251.037 298.078 250.257C298.747 249.458 299.081 248.39 299.081 247.052C299.081 245.696 298.747 244.628 298.078 243.848C297.409 243.049 296.462 242.65 295.236 242.65C293.991 242.65 293.034 243.049 292.366 243.848C291.697 244.628 291.363 245.696 291.363 247.052C291.363 248.39 291.697 249.458 292.366 250.257C293.034 251.037 293.991 251.427 295.236 251.427Z" fill="#FC8019"/>
<path d="M19.3132 257H13.1273L6.57912 247.08V257H0.39322V237.272H6.57912L13.1273 247.359V237.272H19.3132V257ZM31.7211 257.195C29.8635 257.195 28.1544 256.759 26.594 255.885C25.0522 255.012 23.8262 253.805 22.9159 252.263C22.0057 250.721 21.5506 248.984 21.5506 247.052C21.5506 245.12 22.0057 243.384 22.9159 241.842C23.8262 240.3 25.0522 239.102 26.594 238.247C28.1544 237.374 29.8635 236.938 31.7211 236.938C33.5787 236.938 35.2784 237.374 36.8203 238.247C38.3621 239.102 39.5788 240.3 40.4705 241.842C41.3807 243.384 41.8359 245.12 41.8359 247.052C41.8359 248.984 41.3807 250.721 40.4705 252.263C39.5788 253.805 38.3528 255.012 36.7924 255.885C35.2506 256.759 33.5601 257.195 31.7211 257.195ZM31.7211 251.427C32.9471 251.427 33.8945 251.037 34.5633 250.257C35.232 249.458 35.5664 248.39 35.5664 247.052C35.5664 245.696 35.232 244.628 34.5633 243.848C33.8945 243.049 32.9471 242.65 31.7211 242.65C30.4765 242.65 29.5198 243.049 28.8511 243.848C28.1823 244.628 27.8479 245.696 27.8479 247.052C27.8479 248.39 28.1823 249.458 28.8511 250.257C29.5198 251.037 30.4765 251.427 31.7211 251.427ZM53.6806 257.195C51.823 257.195 50.114 256.759 48.5536 255.885C47.0118 255.012 45.7857 253.805 44.8755 252.263C43.9652 250.721 43.5101 248.984 43.5101 247.052C43.5101 245.12 43.9652 243.384 44.8755 241.842C45.7857 240.3 47.0118 239.102 48.5536 238.247C50.114 237.374 51.823 236.938 53.6806 236.938C55.5383 236.938 57.238 237.374 58.7798 238.247C60.3217 239.102 61.5384 240.3 62.4301 241.842C63.3403 243.384 63.7954 245.12 63.7954 247.052C63.7954 248.984 63.3403 250.721 62.4301 252.263C61.5384 253.805 60.3124 255.012 58.752 255.885C57.2101 256.759 55.5197 257.195 53.6806 257.195ZM53.6806 251.427C54.9067 251.427 55.8541 251.037 56.5228 250.257C57.1916 249.458 57.5259 248.39 57.5259 247.052C57.5259 245.696 57.1916 244.628 56.5228 243.848C55.8541 243.049 54.9067 242.65 53.6806 242.65C52.436 242.65 51.4793 243.049 50.8106 243.848C50.1419 244.628 49.8075 245.696 49.8075 247.052C49.8075 248.39 50.1419 249.458 50.8106 250.257C51.4793 251.037 52.436 251.427 53.6806 251.427ZM75.6402 257.195C73.7826 257.195 72.0735 256.759 70.5131 255.885C68.9713 255.012 67.7453 253.805 66.835 252.263C65.9248 250.721 65.4697 248.984 65.4697 247.052C65.4697 245.12 65.9248 243.384 66.835 241.842C67.7453 240.3 68.9713 239.102 70.5131 238.247C72.0735 237.374 73.7826 236.938 75.6402 236.938C77.4978 236.938 79.1975 237.374 80.7394 238.247C82.2812 239.102 83.4979 240.3 84.3896 241.842C85.2998 243.384 85.755 245.12 85.755 247.052C85.755 248.984 85.2998 250.721 84.3896 252.263C83.4979 253.805 82.2719 255.012 80.7115 255.885C79.1697 256.759 77.4792 257.195 75.6402 257.195ZM75.6402 251.427C76.8662 251.427 77.8136 251.037 78.4824 250.257C79.1511 249.458 79.4855 248.39 79.4855 247.052C79.4855 245.696 79.1511 244.628 78.4824 243.848C77.8136 243.049 76.8662 242.65 75.6402 242.65C74.3956 242.65 73.4389 243.049 72.7702 243.848C72.1014 244.628 71.767 245.696 71.767 247.052C71.767 248.39 72.1014 249.458 72.7702 250.257C73.4389 251.037 74.3956 251.427 75.6402 251.427ZM97.5997 257.195C95.7421 257.195 94.0331 256.759 92.4727 255.885C90.9308 255.012 89.7048 253.805 88.7946 252.263C87.8843 250.721 87.4292 248.984 87.4292 247.052C87.4292 245.12 87.8843 243.384 88.7946 241.842C89.7048 240.3 90.9308 239.102 92.4727 238.247C94.0331 237.374 95.7421 236.938 97.5997 236.938C99.4574 236.938 101.157 237.374 102.699 238.247C104.241 239.102 105.457 240.3 106.349 241.842C107.259 243.384 107.715 245.12 107.715 247.052C107.715 248.984 107.259 250.721 106.349 252.263C105.457 253.805 104.231 255.012 102.671 255.885C101.129 256.759 99.4388 257.195 97.5997 257.195ZM97.5997 251.427C98.8258 251.427 99.7731 251.037 100.442 250.257C101.111 249.458 101.445 248.39 101.445 247.052C101.445 245.696 101.111 244.628 100.442 243.848C99.7731 243.049 98.8258 242.65 97.5997 242.65C96.3551 242.65 95.3984 243.049 94.7297 243.848C94.0609 244.628 93.7266 245.696 93.7266 247.052C93.7266 248.39 94.0609 249.458 94.7297 250.257C95.3984 251.037 96.3551 251.427 97.5997 251.427ZM119.559 257.195C117.702 257.195 115.993 256.759 114.432 255.885C112.89 255.012 111.664 253.805 110.754 252.263C109.844 250.721 109.389 248.984 109.389 247.052C109.389 245.12 109.844 243.384 110.754 241.842C111.664 240.3 112.89 239.102 114.432 238.247C115.993 237.374 117.702 236.938 119.559 236.938C121.417 236.938 123.117 237.374 124.658 238.247C126.2 239.102 127.417 240.3 128.309 241.842C129.219 243.384 129.674 245.12 129.674 247.052C129.674 248.984 129.219 250.721 128.309 252.263C127.417 253.805 126.191 255.012 124.631 255.885C123.089 256.759 121.398 257.195 119.559 257.195ZM119.559 251.427C120.785 251.427 121.733 251.037 122.401 250.257C123.07 249.458 123.405 248.39 123.405 247.052C123.405 245.696 123.07 244.628 122.401 243.848C121.733 243.049 120.785 242.65 119.559 242.65C118.315 242.65 117.358 243.049 116.689 243.848C116.02 244.628 115.686 245.696 115.686 247.052C115.686 248.39 116.02 249.458 116.689 250.257C117.358 251.037 118.315 251.427 119.559 251.427ZM141.519 257.195C139.661 257.195 137.952 256.759 136.392 255.885C134.85 255.012 133.624 253.805 132.714 252.263C131.803 250.721 131.348 248.984 131.348 247.052C131.348 245.12 131.803 243.384 132.714 241.842C133.624 240.3 134.85 239.102 136.392 238.247C137.952 237.374 139.661 236.938 141.519 236.938C143.376 236.938 145.076 237.374 146.618 238.247C148.16 239.102 149.377 240.3 150.268 241.842C151.178 243.384 151.634 245.12 151.634 247.052C151.634 248.984 151.178 250.721 150.268 252.263C149.377 253.805 148.151 255.012 146.59 255.885C145.048 256.759 143.358 257.195 141.519 257.195ZM141.519 251.427C142.745 251.427 143.692 251.037 144.361 250.257C145.03 249.458 145.364 248.39 145.364 247.052C145.364 245.696 145.03 244.628 144.361 243.848C143.692 243.049 142.745 242.65 141.519 242.65C140.274 242.65 139.318 243.049 138.649 243.848C137.98 244.628 137.646 245.696 137.646 247.052C137.646 248.39 137.98 249.458 138.649 250.257C139.318 251.037 140.274 251.427 141.519 251.427ZM163.478 257.195C161.621 257.195 159.912 256.759 158.351 255.885C156.809 255.012 155.583 253.805 154.673 252.263C153.763 250.721 153.308 248.984 153.308 247.052C153.308 245.12 153.763 243.384 154.673 241.842C155.583 240.3 156.809 239.102 158.351 238.247C159.912 237.374 161.621 236.938 163.478 236.938C165.336 236.938 167.036 237.374 168.578 238.247C170.119 239.102 171.336 240.3 172.228 241.842C173.138 243.384 173.593 245.12 173.593 247.052C173.593 248.984 173.138 250.721 172.228 252.263C171.336 253.805 170.11 255.012 168.55 255.885C167.008 256.759 165.317 257.195 163.478 257.195ZM163.478 251.427C164.704 251.427 165.652 251.037 166.321 250.257C166.989 249.458 167.324 248.39 167.324 247.052C167.324 245.696 166.989 244.628 166.321 243.848C165.652 243.049 164.704 242.65 163.478 242.65C162.234 242.65 161.277 243.049 160.608 243.848C159.94 244.628 159.605 245.696 159.605 247.052C159.605 248.39 159.94 249.458 160.608 250.257C161.277 251.037 162.234 251.427 163.478 251.427ZM185.438 257.195C183.58 257.195 181.871 256.759 180.311 255.885C178.769 255.012 177.543 253.805 176.633 252.263C175.723 250.721 175.267 248.984 175.267 247.052C175.267 245.12 175.723 243.384 176.633 241.842C177.543 240.3 178.769 239.102 180.311 238.247C181.871 237.374 183.58 236.938 185.438 236.938C187.296 236.938 188.995 237.374 190.537 238.247C192.079 239.102 193.296 240.3 194.187 241.842C195.098 243.384 195.553 245.12 195.553 247.052C195.553 248.984 195.098 250.721 194.187 252.263C193.296 253.805 192.07 255.012 190.509 255.885C188.967 256.759 187.277 257.195 185.438 257.195ZM185.438 251.427C186.664 251.427 187.611 251.037 188.28 250.257C188.949 249.458 189.283 248.39 189.283 247.052C189.283 245.696 188.949 244.628 188.28 243.848C187.611 243.049 186.664 242.65 185.438 242.65C184.193 242.65 183.237 243.049 182.568 243.848C181.899 244.628 181.565 245.696 181.565 247.052C181.565 248.39 181.899 249.458 182.568 250.257C183.237 251.037 184.193 251.427 185.438 251.427ZM207.397 257.195C205.54 257.195 203.831 256.759 202.27 255.885C200.729 255.012 199.503 253.805 198.592 252.263C197.682 250.721 197.227 248.984 197.227 247.052C197.227 245.12 197.682 243.384 198.592 241.842C199.503 240.3 200.729 239.102 202.27 238.247C203.831 237.374 205.54 236.938 207.397 236.938C209.255 236.938 210.955 237.374 212.497 238.247C214.038 239.102 215.255 240.3 216.147 241.842C217.057 243.384 217.512 245.12 217.512 247.052C217.512 248.984 217.057 250.721 216.147 252.263C215.255 253.805 214.029 255.012 212.469 255.885C210.927 256.759 209.237 257.195 207.397 257.195ZM207.397 251.427C208.623 251.427 209.571 251.037 210.24 250.257C210.908 249.458 211.243 248.39 211.243 247.052C211.243 245.696 210.908 244.628 210.24 243.848C209.571 243.049 208.623 242.65 207.397 242.65C206.153 242.65 205.196 243.049 204.527 243.848C203.859 244.628 203.524 245.696 203.524 247.052C203.524 248.39 203.859 249.458 204.527 250.257C205.196 251.037 206.153 251.427 207.397 251.427ZM229.357 257.195C227.499 257.195 225.79 256.759 224.23 255.885C222.688 255.012 221.462 253.805 220.552 252.263C219.642 250.721 219.187 248.984 219.187 247.052C219.187 245.12 219.642 243.384 220.552 241.842C221.462 240.3 222.688 239.102 224.23 238.247C225.79 237.374 227.499 236.938 229.357 236.938C231.215 236.938 232.914 237.374 234.456 238.247C235.998 239.102 237.215 240.3 238.106 241.842C239.017 243.384 239.472 245.12 239.472 247.052C239.472 248.984 239.017 250.721 238.106 252.263C237.215 253.805 235.989 255.012 234.428 255.885C232.887 256.759 231.196 257.195 229.357 257.195ZM229.357 251.427C230.583 251.427 231.53 251.037 232.199 250.257C232.868 249.458 233.202 248.39 233.202 247.052C233.202 245.696 232.868 244.628 232.199 243.848C231.53 243.049 230.583 242.65 229.357 242.65C228.112 242.65 227.156 243.049 226.487 243.848C225.818 244.628 225.484 245.696 225.484 247.052C225.484 248.39 225.818 249.458 226.487 250.257C227.156 251.037 228.112 251.427 229.357 251.427ZM251.317 257.195C249.459 257.195 247.75 256.759 246.19 255.885C244.648 255.012 243.422 253.805 242.511 252.263C241.601 250.721 241.146 248.984 241.146 247.052C241.146 245.12 241.601 243.384 242.511 241.842C243.422 240.3 244.648 239.102 246.19 238.247C247.75 237.374 249.459 236.938 251.317 236.938C253.174 236.938 254.874 237.374 256.416 238.247C257.958 239.102 259.174 240.3 260.066 241.842C260.976 243.384 261.431 245.12 261.431 247.052C261.431 248.984 260.976 250.721 260.066 252.263C259.174 253.805 257.948 255.012 256.388 255.885C254.846 256.759 253.156 257.195 251.317 257.195ZM251.317 251.427C252.543 251.427 253.49 251.037 254.159 250.257C254.827 249.458 255.162 248.39 255.162 247.052C255.162 245.696 254.827 244.628 254.159 243.848C253.49 243.049 252.543 242.65 251.317 242.65C250.072 242.65 249.115 243.049 248.447 243.848C247.778 244.628 247.443 245.696 247.443 247.052C247.443 248.39 247.778 249.458 248.447 250.257C249.115 251.037 250.072 251.427 251.317 251.427ZM273.276 257.195C271.418 257.195 269.709 256.759 268.149 255.885C266.607 255.012 265.381 253.805 264.471 252.263C263.561 250.721 263.106 248.984 263.106 247.052C263.106 245.12 263.561 243.384 264.471 241.842C265.381 240.3 266.607 239.102 268.149 238.247C269.709 237.374 271.418 236.938 273.276 236.938C275.134 236.938 276.833 237.374 278.375 238.247C279.917 239.102 281.134 240.3 282.026 241.842C282.936 243.384 283.391 245.12 283.391 247.052C283.391 248.984 282.936 250.721 282.026 252.263C281.134 253.805 279.908 255.012 278.347 255.885C276.806 256.759 275.115 257.195 273.276 257.195ZM273.276 251.427C274.502 251.427 275.45 251.037 276.118 250.257C276.787 249.458 277.121 248.39 277.121 247.052C277.121 245.696 276.787 244.628 276.118 243.848C275.45 243.049 274.502 242.65 273.276 242.65C272.031 242.65 271.075 243.049 270.406 243.848C269.737 244.628 269.403 245.696 269.403 247.052C269.403 248.39 269.737 249.458 270.406 250.257C271.075 251.037 272.031 251.427 273.276 251.427ZM295.236 257.195C293.378 257.195 291.669 256.759 290.109 255.885C288.567 255.012 287.341 253.805 286.431 252.263C285.52 250.721 285.065 248.984 285.065 247.052C285.065 245.12 285.52 243.384 286.431 241.842C287.341 240.3 288.567 239.102 290.109 238.247C291.669 237.374 293.378 236.938 295.236 236.938C297.093 236.938 298.793 237.374 300.335 238.247C301.877 239.102 303.093 240.3 303.985 241.842C304.895 243.384 305.35 245.12 305.35 247.052C305.35 248.984 304.895 250.721 303.985 252.263C303.093 253.805 301.867 255.012 300.307 255.885C298.765 256.759 297.075 257.195 295.236 257.195ZM295.236 251.427C296.462 251.427 297.409 251.037 298.078 250.257C298.747 249.458 299.081 248.39 299.081 247.052C299.081 245.696 298.747 244.628 298.078 243.848C297.409 243.049 296.462 242.65 295.236 242.65C293.991 242.65 293.034 243.049 292.366 243.848C291.697 244.628 291.363 245.696 291.363 247.052C291.363 248.39 291.697 249.458 292.366 250.257C293.034 251.037 293.991 251.427 295.236 251.427Z" fill="url(#paint0_linear_304_4930)"/>
<path d="M93.6701 145.282C93.7357 145.677 100.685 155.58 100.685 155.58L90.9832 159.683L82.7864 147.194L88.8359 142.97L93.6618 145.3L93.6701 145.282Z" fill="#FFAD61"/>
<path d="M87.5165 154.405C90.4332 154.725 94.5881 154.513 97.9857 151.717C96.0222 148.892 93.7074 145.514 93.6699 145.282L88.8267 142.944L82.7773 147.169L87.5165 154.405Z" fill="#FFA254"/>
<path d="M160.877 118.158L185.266 129.933C186.12 123.968 183.089 117.876 177.381 115.12C171.655 112.356 165.017 113.779 160.877 118.158Z" fill="white"/>
<path d="M212.652 180.693L235.15 194.264L237.638 197.769L233.563 199.982L208.481 187.787L212.652 180.693Z" fill="#FFAD61"/>
<path d="M201.741 149.894L229.09 141.375L233.34 142.075L232.061 146.533L205.782 155.872L201.741 149.894Z" fill="#FFAD61"/>
<path d="M231.081 130.479L236.619 145.756C236.665 145.883 236.607 146.005 236.48 146.051L235.323 146.466C235.196 146.511 235.074 146.453 235.028 146.326L229.49 131.049C229.445 130.923 229.503 130.8 229.629 130.755L230.787 130.34C230.913 130.295 231.036 130.353 231.081 130.479Z" fill="#DAEEF7"/>
<path d="M230.043 147.562L234.619 146.494C235.18 146.353 235.565 145.889 235.422 145.491L230.403 131.661C230.273 131.299 229.909 131.022 229.428 130.99C228.923 130.947 228.259 131.144 227.618 132.088C226.311 133.964 227.354 138.182 226.591 140.72L228.923 147.168C229.064 147.505 229.529 147.665 230.043 147.562Z" fill="#FC8019"/>
<path d="M229.513 140.733C229.498 140.861 229.33 140.962 229.177 140.935C228.483 140.878 226.696 140.56 226.388 138.732C226.367 138.617 226.474 138.517 226.625 138.484C226.758 138.456 226.881 138.514 226.895 138.611C227.2 140.257 228.743 140.52 229.327 140.555C229.448 140.553 229.523 140.648 229.513 140.733Z" fill="#DAEEF7"/>
<path d="M229.561 139.104C229.546 139.232 229.378 139.333 229.226 139.306C228.532 139.248 226.745 138.93 226.436 137.102C226.415 136.987 226.522 136.888 226.674 136.854C226.807 136.827 226.929 136.885 226.944 136.981C227.248 138.627 228.791 138.89 229.375 138.926C229.497 138.923 229.565 139 229.561 139.104Z" fill="#DAEEF7"/>
<path d="M229.606 137.578C229.591 137.706 229.423 137.807 229.271 137.78C228.577 137.723 226.789 137.404 226.481 135.576C226.46 135.462 226.567 135.362 226.718 135.328C226.852 135.301 226.974 135.359 226.989 135.456C227.293 137.101 228.836 137.364 229.42 137.4C229.541 137.397 229.61 137.475 229.606 137.578Z" fill="#DAEEF7"/>
<path opacity="0.3" d="M234.093 141.785C230.945 144.158 231.221 146.181 231.681 147.179L234.636 146.487C235.198 146.347 235.583 145.882 235.44 145.485L234.093 141.785Z" fill="#E87B50"/>
<path d="M171.285 171.769C170.781 169.909 171.141 161.292 176.233 158.365C181.325 155.437 223.894 141.279 223.894 141.279L226.888 149.632C226.888 149.632 195.837 168.313 194.861 168.663C193.884 169.013 171.285 171.769 171.285 171.769Z" fill="#1B1B1B"/>
<path d="M141.53 209.831C141.994 209.885 158.944 220.414 169.208 202.91C179.471 185.406 186.961 176.033 186.961 176.033C186.961 176.033 226.131 198.058 228.196 198.905C228.196 198.905 232.291 193.162 233.18 190.306C233.18 190.306 195.27 154.407 184.072 154.098C172.874 153.789 153.514 185.053 153.514 185.053L141.547 209.839L141.53 209.831Z" fill="#1F1F1F"/>
<path d="M107.852 151.949C107.852 151.949 116.799 148.296 117.397 147.388C118.014 146.473 117.973 113.662 117.973 113.662L125.082 116.328L127.127 139.712C127.127 139.712 127.495 156.89 127.039 156.879C126.582 156.869 120.724 158.167 118.265 158.245C115.806 158.323 109.813 157.389 109.813 157.389L107.852 151.949Z" fill="#FFA552"/>
<path d="M88.7906 159.542C88.7906 159.542 86.5824 181.212 121.965 200.876L142.235 211.771C142.235 211.771 161.368 195.115 159.363 179.345C159.363 179.345 123.001 160.296 110.118 152.52C107.935 151.21 105.261 151.049 102.957 152.112C97.6726 154.53 88.8049 158.717 88.7906 159.542Z" fill="#FC8019"/>
<path d="M77.9552 146.952C80.4299 146.995 82.3284 148.85 82.2132 151.076C82.098 153.303 80.0008 155.084 77.5261 155.041C75.0514 154.998 73.1529 153.143 73.2681 150.917C73.3833 148.69 75.4805 146.909 77.9552 146.952Z" fill="#FFC0BB"/>
<path d="M244.157 188.375L237.144 203.034C237.086 203.155 236.957 203.2 236.836 203.141L235.729 202.607C235.608 202.548 235.563 202.42 235.622 202.299L242.635 187.641C242.693 187.519 242.822 187.475 242.943 187.533L244.05 188.068C244.171 188.126 244.215 188.254 244.157 188.375Z" fill="#DAEEF7"/>
<path d="M231.247 199.611L235.216 202.124C235.71 202.427 236.31 202.375 236.494 201.995L242.839 188.72C243.006 188.374 242.948 187.92 242.634 187.555C242.311 187.164 241.705 186.829 240.582 187.033C238.328 187.417 236.051 191.116 233.706 192.352L230.742 198.535C230.601 198.872 230.805 199.333 231.247 199.611Z" fill="#FC8019"/>
<path d="M235.745 194.445C235.643 194.524 235.453 194.475 235.365 194.347C234.92 193.812 233.894 192.315 234.981 190.813C235.049 190.718 235.195 190.724 235.325 190.809C235.438 190.884 235.482 191.013 235.423 191.091C234.463 192.461 235.357 193.746 235.741 194.187C235.828 194.272 235.813 194.393 235.745 194.445Z" fill="#DAEEF7"/>
<path d="M236.941 193.338C236.839 193.416 236.649 193.368 236.561 193.24C236.116 192.705 235.09 191.207 236.177 189.706C236.245 189.61 236.391 189.617 236.521 189.701C236.634 189.777 236.678 189.905 236.619 189.983C235.659 191.354 236.553 192.639 236.937 193.08C237.024 193.165 237.017 193.268 236.941 193.338Z" fill="#DAEEF7"/>
<path d="M238.061 192.3C237.959 192.379 237.769 192.33 237.681 192.202C237.236 191.667 236.21 190.169 237.297 188.668C237.365 188.572 237.511 188.579 237.641 188.663C237.754 188.739 237.798 188.867 237.739 188.945C236.779 190.316 237.673 191.601 238.057 192.042C238.144 192.127 238.137 192.23 238.061 192.3Z" fill="#DAEEF7"/>
<path opacity="0.3" d="M238.206 198.449C234.306 197.867 233.057 199.482 232.668 200.51L235.233 202.132C235.727 202.435 236.328 202.384 236.511 202.003L238.206 198.449Z" fill="#E87B50"/>
<path d="M93.6014 137.208L96.07 139.296C96.07 139.296 87.8936 143.154 87.8149 143.052C87.7362 142.95 86.4461 140.984 86.8183 140.566C87.1994 140.175 90.634 136.948 90.7377 136.998C90.8415 137.049 93.6014 137.208 93.6014 137.208Z" fill="white"/>
<path d="M91.0146 141.933C90.7533 140.346 93.6292 137.989 94.1075 137.175C93.2725 136.431 92.6468 135.915 92.6468 135.915C92.6468 135.915 93.0167 133.47 92.5813 132.428C92.5813 132.428 88.6053 133.154 87.2049 132.52C85.8044 131.887 78.5719 125.75 71.0117 129.437C63.4514 133.124 70.1458 140.729 70.1458 140.729L77.627 147.455L81.2151 153.453C81.2151 153.453 86.3727 154.919 92.0081 151.817C97.6436 148.715 98.8856 142.873 98.8964 141.791C98.9012 141.516 97.1434 139.899 95.508 138.427C92.94 146.729 91.0146 141.933 91.0146 141.933Z" fill="#FFAD61"/>
<path d="M84.7156 137.013C85.2732 136.963 85.7045 136.467 85.6795 135.9C85.6544 135.334 85.1844 134.893 84.6267 134.944C84.0691 134.995 83.6378 135.49 83.6628 136.057C83.6879 136.624 84.1662 137.047 84.7156 137.013Z" fill="#333333"/>
<path d="M82.5205 138.034C82.2984 137.387 82.1326 136.785 82.0232 136.229C81.9138 135.673 81.913 135.154 81.9967 134.704C82.0804 134.254 82.2325 133.834 82.5256 133.527L82.6339 133.393C82.67 133.348 82.7061 133.303 82.7422 133.258L82.9751 133.026C83.1477 132.869 83.3365 132.75 83.4929 132.555C83.1753 132.546 82.8577 132.537 82.5844 132.589C82.3272 132.678 82.0257 132.706 81.8411 132.878C81.3711 133.116 81.1024 133.566 81.0148 134.136C80.8991 134.684 81.0167 135.346 81.2952 136.038C81.5294 136.67 81.9406 137.37 82.5205 138.034Z" fill="#333333"/>
<path d="M74.7039 141.714C74.7039 141.714 75.4578 144.658 83.3542 149.111C89.4755 152.556 87.9407 158.342 87.9562 158.222C87.9717 158.101 74.8021 150.037 74.4603 149.552C74.1186 149.067 69.7204 144.746 69.7157 144.403C69.7109 144.059 73.8003 141.597 73.9697 141.423C74.1218 141.241 74.7039 141.714 74.7039 141.714Z" fill="#1F1F1F"/>
<path d="M77.0014 122.155C77.0014 122.155 61.9981 117.535 54.0992 135.84C46.2003 154.144 67.2754 163.594 67.2754 163.594C67.2754 163.594 81.9904 171.594 87.1763 160.853C87.1763 160.853 91.1508 153.813 82.0871 149.437C73.3175 145.203 74.6036 142.54 74.6036 142.54L77.0014 122.155Z" fill="#FC8019"/>
<path opacity="0.5" d="M54.8491 152.753C59.1064 159.927 67.2664 163.568 67.2664 163.568C67.2664 163.568 81.9815 171.568 87.1674 160.827C87.1674 160.827 91.0327 153.97 82.4241 149.579C74.179 157.777 63.9849 156.758 54.8491 152.753Z" fill="#FC8019"/>
<path d="M82.3551 156.349C83.4795 156.892 83.9536 158.251 83.4108 159.376C82.868 160.5 81.5086 160.974 80.3843 160.431C79.26 159.889 78.7859 158.529 79.3287 157.405C79.8888 156.289 81.2308 155.806 82.3551 156.349Z" fill="white"/>
<path d="M74.6036 142.54C74.6722 141.912 80.2227 127.72 82.8366 121.069C83.2763 119.938 82.05 118.855 80.993 119.454L76.569 121.946L74.6036 142.54Z" fill="#1F1F1F"/>
<path d="M74.6035 142.54C74.6882 141.834 76.7071 126.343 77.3067 121.876C77.3837 121.231 76.9119 120.662 76.2671 120.628L74.8058 120.562C74.161 120.528 73.6188 121.077 73.6534 121.712L74.6035 142.54Z" fill="white"/>
<path d="M119.101 117.453C119.101 117.453 115.321 112.94 114.989 110.776C114.658 108.611 115.254 103.876 117.419 103.545C119.583 103.213 121.072 104.307 121.072 104.307L125.522 108.114C125.522 108.114 127.455 109.955 126.735 110.96C126.014 111.964 127.472 114.383 125.775 119.034C124.101 123.585 122.133 119.864 121.388 119.318C120.644 118.771 119.101 117.453 119.101 117.453Z" fill="#FFA552"/>
<path d="M122.126 172.827C122.126 172.827 143.333 174.652 147.892 166.861C150.744 162.014 151.457 120.73 151.457 120.73L144.793 119.088C144.793 119.088 138.268 152.868 137.233 154.989C136.197 157.11 118.219 156.578 118.219 156.578L122.126 172.827Z" fill="#FFAD61"/>
<path d="M98.7317 160.398C97.394 162.449 97.3746 165.114 98.6669 167.209C100.451 170.103 104.831 173.96 115.639 174.753L124.95 175.407C124.95 175.407 126.331 159.806 125.415 155.224L111.138 155.001C111.138 155.001 102.236 154.984 98.7317 160.398Z" fill="#1F1F1F"/>
<path d="M144.695 122.892C144.695 122.892 140.915 118.38 140.584 116.216C140.252 114.051 140.848 109.316 143.013 108.984C145.177 108.653 146.666 109.746 146.666 109.746L151.116 113.554C151.116 113.554 153.049 115.395 152.329 116.399C151.608 117.403 153.067 119.823 151.369 124.474C149.696 129.025 147.727 125.304 146.982 124.757C146.238 124.211 144.695 122.892 144.695 122.892Z" fill="#FFAD61"/>
<path d="M103.061 103C103.061 100.6 107.395 77 109.561 65.5" stroke="#1F1F1F" stroke-opacity="0.5" stroke-linecap="round"/>
<path d="M134.061 84C134.061 78.688 144.728 26.4533 150.061 1" stroke="#1F1F1F" stroke-opacity="0.5" stroke-linecap="round"/>
<path d="M163.061 96C163.061 92.224 170.395 55.0933 174.061 37" stroke="#1F1F1F" stroke-opacity="0.5" stroke-linecap="round"/>
<path d="M198.062 116C198.062 113.376 203.395 87.5733 206.062 75" stroke="#1F1F1F" stroke-opacity="0.5" stroke-linecap="round"/>
<defs>
<linearGradient id="paint0_linear_304_4930" x1="349.917" y1="246.898" x2="2.48304" y2="246.898" gradientUnits="userSpaceOnUse">
<stop stop-color="white"/>
<stop offset="1" stop-color="white" stop-opacity="0"/>
</linearGradient>
</defs>
</svg>
