<svg width="78" height="87" viewBox="0 0 78 87" fill="none" xmlns="http://www.w3.org/2000/svg">
<path d="M18.2561 51.0106C18.2788 51.1473 20.6877 54.5799 20.6877 54.5799L17.3248 56.0022L14.4836 51.6733L16.5805 50.2091L18.2532 51.0166L18.2561 51.0106Z" fill="#FFAD61"/>
<path d="M16.1231 54.1727C17.1341 54.2838 18.5742 54.2102 19.7519 53.2411C19.0713 52.2619 18.269 51.0909 18.2559 51.0107L16.5772 50.2002L14.4804 51.6645L16.1231 54.1727Z" fill="#FFA254"/>
<path d="M41.5513 41.6089L50.0049 45.6903C50.3008 43.6226 49.2502 41.5111 47.2717 40.5559C45.2872 39.5978 42.9863 40.0912 41.5513 41.6089Z" fill="white"/>
<path d="M59.4972 63.2846L67.2954 67.9885L68.1579 69.2033L66.7452 69.9703L58.0514 65.7434L59.4972 63.2846Z" fill="#FFAD61"/>
<path d="M55.7153 52.609L65.1948 49.6562L66.6681 49.8989L66.2248 51.4441L57.116 54.6813L55.7153 52.609Z" fill="#FFAD61"/>
<path d="M65.8847 45.8797L67.8042 51.1749C67.8199 51.2188 67.7998 51.2614 67.756 51.2771L67.3549 51.4209C67.311 51.4366 67.2684 51.4165 67.2527 51.3726L65.3332 46.0774C65.3175 46.0336 65.3375 45.991 65.3814 45.9753L65.7825 45.8315C65.8264 45.8157 65.8689 45.8358 65.8847 45.8797Z" fill="#DAEEF7"/>
<path d="M65.525 51.801L67.1108 51.4306C67.3056 51.382 67.4388 51.221 67.3894 51.0831L65.6496 46.2893C65.6047 46.164 65.4783 46.0678 65.3116 46.0568C65.1365 46.0418 64.9064 46.1101 64.6842 46.4373C64.2313 47.0877 64.5927 48.5495 64.3282 49.4293L65.1365 51.6645C65.1855 51.7813 65.3468 51.8366 65.525 51.801Z" fill="#FC8019"/>
<path d="M65.3414 49.4341C65.3361 49.4784 65.2779 49.5134 65.2251 49.5041C64.9846 49.4842 64.3651 49.3739 64.2582 48.7403C64.2509 48.7004 64.2881 48.6659 64.3405 48.6542C64.3866 48.6448 64.4291 48.6649 64.4341 48.6984C64.5396 49.2689 65.0744 49.36 65.2769 49.3723C65.319 49.3714 65.345 49.4045 65.3414 49.4341Z" fill="#DAEEF7"/>
<path d="M65.3582 48.8691C65.3528 48.9135 65.2947 48.9485 65.2418 48.9391C65.0013 48.9193 64.3818 48.8089 64.2749 48.1754C64.2677 48.1355 64.3048 48.101 64.3572 48.0893C64.4033 48.0798 64.4459 48.0999 64.4508 48.1335C64.5563 48.7039 65.0912 48.7951 65.2936 48.8074C65.3357 48.8064 65.3595 48.8333 65.3582 48.8691Z" fill="#DAEEF7"/>
<path d="M65.3734 48.3403C65.3681 48.3846 65.3099 48.4196 65.2571 48.4103C65.0165 48.3904 64.397 48.2801 64.2901 47.6466C64.2829 47.6067 64.3201 47.5722 64.3724 47.5605C64.4186 47.551 64.4611 47.5711 64.4661 47.6047C64.5716 48.1751 65.1064 48.2663 65.3088 48.2786C65.3509 48.2776 65.3747 48.3045 65.3734 48.3403Z" fill="#DAEEF7"/>
<path opacity="0.3" d="M66.9288 49.7984C65.8375 50.621 65.9333 51.3222 66.0927 51.6682L67.1171 51.4283C67.3118 51.3797 67.4451 51.2188 67.3956 51.0809L66.9288 49.7984Z" fill="#E87B50"/>
<path d="M45.1587 60.1915C44.9841 59.5468 45.1086 56.56 46.8737 55.5453C48.6388 54.5306 63.3938 49.623 63.3938 49.623L64.4318 52.5184C64.4318 52.5184 53.6689 58.9936 53.3305 59.115C52.9921 59.2363 45.1587 60.1915 45.1587 60.1915Z" fill="#1B1B1B"/>
<path d="M34.8452 73.3841C35.0062 73.4028 40.8811 77.0524 44.4387 70.9852C47.9964 64.918 50.5925 61.6691 50.5925 61.6691C50.5925 61.6691 64.1693 69.3033 64.8851 69.5971C64.8851 69.5971 66.3046 67.6062 66.6125 66.6164C66.6125 66.6164 53.4723 54.1731 49.5909 54.0661C45.7095 53.9591 38.9991 64.7955 38.9991 64.7955L34.8511 73.387L34.8452 73.3841Z" fill="#1F1F1F"/>
<path d="M23.1718 53.3212C23.1718 53.3212 26.2728 52.055 26.4803 51.7403C26.6939 51.4232 26.6796 40.0504 26.6796 40.0504L29.1438 40.9744L29.8529 49.0797C29.8529 49.0797 29.9803 55.0338 29.8221 55.0302C29.6639 55.0266 27.6332 55.4765 26.7809 55.5035C25.9286 55.5305 23.8512 55.2069 23.8512 55.2069L23.1718 53.3212Z" fill="#FFA552"/>
<path d="M16.565 55.9531C16.565 55.9531 15.7996 63.4645 28.0638 70.2802L35.0899 74.0567C35.0899 74.0567 41.7215 68.2835 41.0264 62.8171C41.0264 62.8171 28.4227 56.2146 23.9576 53.5192C23.2009 53.0651 22.2741 53.0095 21.4752 53.3779C19.6437 54.2162 16.57 55.6672 16.565 55.9531Z" fill="#FC8019"/>
<path d="M12.8089 51.5893C13.6667 51.6042 14.3247 52.2472 14.2848 53.019C14.2449 53.7907 13.5179 54.4082 12.6602 54.3933C11.8024 54.3784 11.1443 53.7354 11.1843 52.9637C11.2242 52.1919 11.9511 51.5744 12.8089 51.5893Z" fill="#FFC0BB"/>
<path d="M70.4176 65.9473L67.9868 71.0281C67.9666 71.0701 67.9221 71.0856 67.8801 71.0653L67.4964 70.8801C67.4545 70.8598 67.4389 70.8154 67.4592 70.7734L69.8901 65.6926C69.9103 65.6506 69.9548 65.6351 69.9967 65.6554L70.3804 65.8406C70.4224 65.8609 70.4379 65.9053 70.4176 65.9473Z" fill="#DAEEF7"/>
<path d="M65.9426 69.8417L67.3185 70.7129C67.4897 70.8178 67.6979 70.8 67.7615 70.6681L69.9608 66.0669C70.0187 65.947 69.9987 65.7894 69.8897 65.6629C69.7777 65.5275 69.5676 65.4113 69.1785 65.4822C68.3972 65.6151 67.6081 66.8975 66.7951 67.3256L65.7678 69.4689C65.7187 69.5857 65.7895 69.7455 65.9426 69.8417Z" fill="#FC8019"/>
<path d="M67.5018 68.0512C67.4664 68.0785 67.4007 68.0616 67.3703 68.0173C67.2158 67.8319 66.8603 67.3127 67.2372 66.7924C67.2605 66.7593 67.3112 66.7616 67.3562 66.7907C67.3953 66.817 67.4108 66.8614 67.3904 66.8885C67.0575 67.3636 67.3674 67.8089 67.5005 67.9619C67.5307 67.9913 67.5253 68.0331 67.5018 68.0512Z" fill="#DAEEF7"/>
<path d="M67.9166 67.6672C67.8812 67.6945 67.8155 67.6775 67.7851 67.6333C67.6306 67.4478 67.2751 66.9287 67.652 66.4083C67.6753 66.3753 67.726 66.3775 67.771 66.4067C67.8101 66.433 67.8256 66.4774 67.8052 66.5045C67.4723 66.9796 67.7822 67.4249 67.9153 67.5779C67.9455 67.6073 67.943 67.643 67.9166 67.6672Z" fill="#DAEEF7"/>
<path d="M68.3044 67.3076C68.269 67.3349 68.2033 67.3179 68.1729 67.2737C68.0185 67.0882 67.6629 66.5691 68.0398 66.0487C68.0631 66.0156 68.1138 66.0179 68.1589 66.0471C68.1979 66.0733 68.2134 66.1178 68.193 66.1449C67.8601 66.62 68.17 67.0653 68.3031 67.2183C68.3333 67.2476 68.3308 67.2834 68.3044 67.3076Z" fill="#DAEEF7"/>
<path opacity="0.3" d="M68.3547 69.4389C67.003 69.2373 66.5701 69.7972 66.4351 70.1534L67.3243 70.7158C67.4955 70.8206 67.7036 70.8028 67.7673 70.6709L68.3547 69.4389Z" fill="#E87B50"/>
<path d="M18.2321 48.212L19.0878 48.9356C19.0878 48.9356 16.2537 50.2731 16.2264 50.2378C16.1991 50.2024 15.7519 49.5208 15.8809 49.3761C16.0131 49.2402 17.2035 48.122 17.2395 48.1394C17.2755 48.1567 18.2321 48.212 18.2321 48.212Z" fill="white"/>
<path d="M17.336 49.8498C17.2454 49.2996 18.2422 48.4828 18.408 48.2006C18.1186 47.9425 17.9017 47.7639 17.9017 47.7639C17.9017 47.7639 18.0299 46.9165 17.879 46.5553C17.879 46.5553 16.5009 46.8066 16.0154 46.5871C15.53 46.3675 13.0231 44.2404 10.4026 45.5184C7.7821 46.7964 10.1025 49.4323 10.1025 49.4323L12.6956 51.7636L13.9393 53.8426C13.9393 53.8426 15.727 54.3509 17.6803 53.2757C19.6337 52.2005 20.0642 50.1756 20.0679 49.8004C20.0696 49.7051 19.4603 49.1448 18.8935 48.6345C18.0034 51.512 17.336 49.8498 17.336 49.8498Z" fill="#FFAD61"/>
<path d="M15.1523 48.1445C15.3456 48.1269 15.495 47.9551 15.4864 47.7587C15.4777 47.5623 15.3148 47.4097 15.1215 47.4273C14.9282 47.4448 14.7787 47.6166 14.7874 47.813C14.796 48.0094 14.9618 48.156 15.1523 48.1445Z" fill="#333333"/>
<path d="M14.3916 48.4982C14.3146 48.2739 14.2572 48.0654 14.2193 47.8725C14.1813 47.6797 14.181 47.5001 14.2101 47.344C14.2391 47.1879 14.2918 47.0424 14.3934 46.9361L14.4309 46.8894C14.4435 46.8738 14.456 46.8583 14.4685 46.8427L14.5492 46.7624C14.609 46.708 14.6745 46.6666 14.7287 46.5992C14.6186 46.596 14.5085 46.5929 14.4138 46.6107C14.3246 46.6416 14.2201 46.6515 14.1561 46.7111C13.9932 46.7936 13.9001 46.9494 13.8697 47.1472C13.8296 47.337 13.8704 47.5663 13.9669 47.8063C14.0481 48.0254 14.1906 48.2681 14.3916 48.4982Z" fill="#333333"/>
<path d="M11.6819 49.7736C11.6819 49.7736 11.9432 50.7943 14.6802 52.3375C16.802 53.532 16.27 55.5374 16.2754 55.4956C16.2807 55.4538 11.7159 52.6585 11.5975 52.4904C11.479 52.3224 9.95455 50.8249 9.9529 50.7058C9.95125 50.5867 11.3687 49.7333 11.4274 49.6729C11.4801 49.6097 11.6819 49.7736 11.6819 49.7736Z" fill="#1F1F1F"/>
<path d="M12.4787 42.9942C12.4787 42.9942 7.27829 41.3928 4.5404 47.7375C1.80251 54.0822 9.10747 57.3576 9.10747 57.3576C9.10747 57.3576 14.2079 60.1306 16.0055 56.4074C16.0055 56.4074 17.3831 53.9675 14.2415 52.4507C11.2018 50.9832 11.6475 50.0599 11.6475 50.0599L12.4787 42.9942Z" fill="#FC8019"/>
<path opacity="0.5" d="M4.80007 53.5999C6.27572 56.0867 9.10414 57.3487 9.10414 57.3487C9.10414 57.3487 14.2046 60.1217 16.0022 56.3986C16.0022 56.3986 17.3419 54.0217 14.358 52.4998C11.5001 55.3413 7.96671 54.9883 4.80007 53.5999Z" fill="#FC8019"/>
<path d="M14.3339 54.8466C14.7237 55.0347 14.888 55.5059 14.6999 55.8956C14.5117 56.2853 14.0405 56.4496 13.6508 56.2615C13.2611 56.0733 13.0968 55.6022 13.2849 55.2125C13.4791 54.8256 13.9442 54.6584 14.3339 54.8466Z" fill="white"/>
<path d="M11.6476 50.0599C11.6714 49.8422 13.5953 44.9232 14.5013 42.6178C14.6537 42.2256 14.2286 41.8504 13.8623 42.0579L12.3288 42.9219L11.6476 50.0599Z" fill="#1F1F1F"/>
<path d="M11.6473 50.0601C11.6767 49.8156 12.3765 44.446 12.5843 42.8977C12.611 42.6741 12.4474 42.4768 12.2239 42.465L11.7174 42.4423C11.4939 42.4305 11.306 42.6207 11.318 42.8409L11.6473 50.0601Z" fill="white"/>
<path d="M27.071 41.3644C27.071 41.3644 25.7606 39.8004 25.6457 39.0502C25.5308 38.3 25.7375 36.6586 26.4877 36.5437C27.238 36.4289 27.754 36.8078 27.754 36.8078L29.2964 38.1275C29.2964 38.1275 29.9666 38.7658 29.7168 39.1138C29.467 39.4619 29.9726 40.3005 29.3843 41.9127C28.8041 43.4901 28.1217 42.2004 27.8637 42.0109C27.6056 41.8214 27.071 41.3644 27.071 41.3644Z" fill="#FFA552"/>
<path d="M28.1196 60.5581C28.1196 60.5581 35.4702 61.1905 37.0504 58.4902C38.0391 56.8099 38.2863 42.5002 38.2863 42.5002L35.9765 41.9311C35.9765 41.9311 33.7147 53.6397 33.3558 54.3749C32.9969 55.1102 26.7655 54.926 26.7655 54.926L28.1196 60.5581Z" fill="#FFAD61"/>
<path d="M20.011 56.25C19.5473 56.9609 19.5406 57.8846 19.9885 58.6108C20.6068 59.614 22.1249 60.9508 25.8714 61.2258L29.0986 61.4524C29.0986 61.4524 29.5772 56.0448 29.26 54.4567L24.3112 54.3793C24.3112 54.3793 21.2256 54.3735 20.011 56.25Z" fill="#1F1F1F"/>
<path d="M35.9429 43.2499C35.9429 43.2499 34.6325 41.6859 34.5177 40.9357C34.4028 40.1855 34.6095 38.5441 35.3597 38.4292C36.1099 38.3144 36.626 38.6933 36.626 38.6933L38.1683 40.013C38.1683 40.013 38.8385 40.6513 38.5888 40.9993C38.339 41.3474 38.8445 42.186 38.2562 43.7982C37.676 45.3756 36.9936 44.0859 36.7356 43.8964C36.4776 43.7069 35.9429 43.2499 35.9429 43.2499Z" fill="#FFAD61"/>
<path d="M21.5117 36.3551C21.5117 35.5232 23.0137 27.343 23.7647 23.3569" stroke="#1F1F1F" stroke-opacity="0.5" stroke-linecap="round"/>
<path d="M32.2568 29.7692C32.2568 27.928 35.9541 9.82256 37.8027 1" stroke="#1F1F1F" stroke-opacity="0.5" stroke-linecap="round"/>
<path d="M42.3086 33.9287C42.3086 32.6198 44.8505 19.7497 46.1214 13.4783" stroke="#1F1F1F" stroke-opacity="0.5" stroke-linecap="round"/>
<path d="M54.4401 40.861C54.4401 39.9514 56.2887 31.0078 57.213 26.6497" stroke="#1F1F1F" stroke-opacity="0.5" stroke-linecap="round"/>
</svg>
