<svg width="353" height="197" viewBox="0 0 353 197" fill="none" xmlns="http://www.w3.org/2000/svg">
<rect x="0.5" y="0.5" width="352" height="196" rx="9.5" fill="white" stroke="#FC8019"/>
<path d="M33 29V168.5H321" stroke="black" stroke-linecap="round"/>
<path d="M45.8493 177.48L43.0693 184H42.1493L44.9693 177.57H41.1093V176.79H45.8493V177.48ZM53.1843 177.03V182.18C53.1843 182.753 53.0076 183.213 52.6543 183.56C52.301 183.9 51.8343 184.07 51.2543 184.07C50.6676 184.07 50.1976 183.897 49.8443 183.55C49.491 183.197 49.3143 182.717 49.3143 182.11H50.2243C50.231 182.45 50.3176 182.727 50.4843 182.94C50.6576 183.153 50.9143 183.26 51.2543 183.26C51.5943 183.26 51.8476 183.16 52.0143 182.96C52.181 182.753 52.2643 182.493 52.2643 182.18V177.03H53.1843ZM59.837 178.52V184H58.927V183.19C58.7537 183.47 58.5104 183.69 58.197 183.85C57.8904 184.003 57.5504 184.08 57.177 184.08C56.7504 184.08 56.367 183.993 56.027 183.82C55.687 183.64 55.417 183.373 55.217 183.02C55.0237 182.667 54.927 182.237 54.927 181.73V178.52H55.827V181.61C55.827 182.15 55.9637 182.567 56.237 182.86C56.5104 183.147 56.8837 183.29 57.357 183.29C57.8437 183.29 58.227 183.14 58.507 182.84C58.787 182.54 58.927 182.103 58.927 181.53V178.52H59.837ZM64.0435 178.42C64.7102 178.42 65.2502 178.623 65.6635 179.03C66.0768 179.43 66.2835 180.01 66.2835 180.77V184H65.3835V180.9C65.3835 180.353 65.2468 179.937 64.9735 179.65C64.7002 179.357 64.3268 179.21 63.8535 179.21C63.3735 179.21 62.9902 179.36 62.7035 179.66C62.4235 179.96 62.2835 180.397 62.2835 180.97V184H61.3735V178.52H62.2835V179.3C62.4635 179.02 62.7068 178.803 63.0135 178.65C63.3268 178.497 63.6702 178.42 64.0435 178.42Z" fill="black"/>
<path d="M82.8697 180.24C82.4964 180.093 82.2097 179.88 82.0097 179.6C81.8097 179.32 81.7097 178.98 81.7097 178.58C81.7097 178.22 81.7997 177.897 81.9797 177.61C82.1597 177.317 82.4264 177.087 82.7797 176.92C83.1397 176.747 83.573 176.66 84.0797 176.66C84.5864 176.66 85.0164 176.747 85.3697 176.92C85.7297 177.087 85.9997 177.317 86.1797 177.61C86.3664 177.897 86.4597 178.22 86.4597 178.58C86.4597 178.967 86.3564 179.307 86.1497 179.6C85.943 179.887 85.6597 180.1 85.2997 180.24C85.713 180.367 86.0397 180.59 86.2797 180.91C86.5264 181.223 86.6497 181.603 86.6497 182.05C86.6497 182.483 86.543 182.863 86.3297 183.19C86.1164 183.51 85.813 183.76 85.4197 183.94C85.033 184.113 84.5864 184.2 84.0797 184.2C83.573 184.2 83.1264 184.113 82.7397 183.94C82.3597 183.76 82.063 183.51 81.8497 183.19C81.6364 182.863 81.5297 182.483 81.5297 182.05C81.5297 181.603 81.6497 181.22 81.8897 180.9C82.1297 180.58 82.4564 180.36 82.8697 180.24ZM85.5797 178.69C85.5797 178.283 85.4464 177.97 85.1797 177.75C84.913 177.53 84.5464 177.42 84.0797 177.42C83.6197 177.42 83.2564 177.53 82.9897 177.75C82.723 177.97 82.5897 178.287 82.5897 178.7C82.5897 179.073 82.7264 179.373 82.9997 179.6C83.2797 179.827 83.6397 179.94 84.0797 179.94C84.5264 179.94 84.8864 179.827 85.1597 179.6C85.4397 179.367 85.5797 179.063 85.5797 178.69ZM84.0797 180.64C83.5864 180.64 83.183 180.757 82.8697 180.99C82.5564 181.217 82.3997 181.56 82.3997 182.02C82.3997 182.447 82.5497 182.79 82.8497 183.05C83.1564 183.31 83.5664 183.44 84.0797 183.44C84.593 183.44 84.9997 183.31 85.2997 183.05C85.5997 182.79 85.7497 182.447 85.7497 182.02C85.7497 181.573 85.5964 181.233 85.2897 181C84.983 180.76 84.5797 180.64 84.0797 180.64ZM94.1843 177.03V182.18C94.1843 182.753 94.0076 183.213 93.6543 183.56C93.301 183.9 92.8343 184.07 92.2543 184.07C91.6676 184.07 91.1976 183.897 90.8443 183.55C90.491 183.197 90.3143 182.717 90.3143 182.11H91.2243C91.231 182.45 91.3176 182.727 91.4843 182.94C91.6576 183.153 91.9143 183.26 92.2543 183.26C92.5943 183.26 92.8476 183.16 93.0143 182.96C93.181 182.753 93.2643 182.493 93.2643 182.18V177.03H94.1843ZM100.837 178.52V184H99.927V183.19C99.7537 183.47 99.5104 183.69 99.197 183.85C98.8904 184.003 98.5504 184.08 98.177 184.08C97.7504 184.08 97.367 183.993 97.027 183.82C96.687 183.64 96.417 183.373 96.217 183.02C96.0237 182.667 95.927 182.237 95.927 181.73V178.52H96.827V181.61C96.827 182.15 96.9637 182.567 97.237 182.86C97.5104 183.147 97.8837 183.29 98.357 183.29C98.8437 183.29 99.227 183.14 99.507 182.84C99.787 182.54 99.927 182.103 99.927 181.53V178.52H100.837ZM105.044 178.42C105.71 178.42 106.25 178.623 106.664 179.03C107.077 179.43 107.284 180.01 107.284 180.77V184H106.384V180.9C106.384 180.353 106.247 179.937 105.974 179.65C105.7 179.357 105.327 179.21 104.854 179.21C104.374 179.21 103.99 179.36 103.704 179.66C103.424 179.96 103.284 180.397 103.284 180.97V184H102.374V178.52H103.284V179.3C103.464 179.02 103.707 178.803 104.014 178.65C104.327 178.497 104.67 178.42 105.044 178.42Z" fill="black"/>
<path d="M122.729 182.06C122.796 182.44 122.949 182.733 123.189 182.94C123.436 183.147 123.766 183.25 124.179 183.25C124.733 183.25 125.139 183.033 125.399 182.6C125.666 182.167 125.793 181.437 125.779 180.41C125.639 180.71 125.406 180.947 125.079 181.12C124.753 181.287 124.389 181.37 123.989 181.37C123.543 181.37 123.143 181.28 122.789 181.1C122.443 180.913 122.169 180.643 121.969 180.29C121.769 179.937 121.669 179.51 121.669 179.01C121.669 178.297 121.876 177.723 122.289 177.29C122.703 176.85 123.289 176.63 124.049 176.63C124.983 176.63 125.636 176.933 126.009 177.54C126.389 178.147 126.579 179.05 126.579 180.25C126.579 181.09 126.503 181.783 126.349 182.33C126.203 182.877 125.949 183.293 125.589 183.58C125.236 183.867 124.749 184.01 124.129 184.01C123.449 184.01 122.919 183.827 122.539 183.46C122.159 183.093 121.943 182.627 121.889 182.06H122.729ZM124.139 180.6C124.586 180.6 124.953 180.463 125.239 180.19C125.526 179.91 125.669 179.533 125.669 179.06C125.669 178.56 125.529 178.157 125.249 177.85C124.969 177.543 124.576 177.39 124.069 177.39C123.603 177.39 123.229 177.537 122.949 177.83C122.676 178.123 122.539 178.51 122.539 178.99C122.539 179.477 122.676 179.867 122.949 180.16C123.223 180.453 123.619 180.6 124.139 180.6ZM134.184 177.03V182.18C134.184 182.753 134.008 183.213 133.654 183.56C133.301 183.9 132.834 184.07 132.254 184.07C131.668 184.07 131.198 183.897 130.844 183.55C130.491 183.197 130.314 182.717 130.314 182.11H131.224C131.231 182.45 131.318 182.727 131.484 182.94C131.658 183.153 131.914 183.26 132.254 183.26C132.594 183.26 132.848 183.16 133.014 182.96C133.181 182.753 133.264 182.493 133.264 182.18V177.03H134.184ZM140.837 178.52V184H139.927V183.19C139.754 183.47 139.51 183.69 139.197 183.85C138.89 184.003 138.55 184.08 138.177 184.08C137.75 184.08 137.367 183.993 137.027 183.82C136.687 183.64 136.417 183.373 136.217 183.02C136.024 182.667 135.927 182.237 135.927 181.73V178.52H136.827V181.61C136.827 182.15 136.964 182.567 137.237 182.86C137.51 183.147 137.884 183.29 138.357 183.29C138.844 183.29 139.227 183.14 139.507 182.84C139.787 182.54 139.927 182.103 139.927 181.53V178.52H140.837ZM145.044 178.42C145.71 178.42 146.25 178.623 146.664 179.03C147.077 179.43 147.284 180.01 147.284 180.77V184H146.384V180.9C146.384 180.353 146.247 179.937 145.974 179.65C145.7 179.357 145.327 179.21 144.854 179.21C144.374 179.21 143.99 179.36 143.704 179.66C143.424 179.96 143.284 180.397 143.284 180.97V184H142.374V178.52H143.284V179.3C143.464 179.02 143.707 178.803 144.014 178.65C144.327 178.497 144.67 178.42 145.044 178.42Z" fill="black"/>
<path d="M159.136 177.6V176.77H161.016V184H160.096V177.6H159.136ZM162.579 180.31C162.579 179.163 162.766 178.27 163.139 177.63C163.512 176.983 164.166 176.66 165.099 176.66C166.026 176.66 166.676 176.983 167.049 177.63C167.422 178.27 167.609 179.163 167.609 180.31C167.609 181.477 167.422 182.383 167.049 183.03C166.676 183.677 166.026 184 165.099 184C164.166 184 163.512 183.677 163.139 183.03C162.766 182.383 162.579 181.477 162.579 180.31ZM166.709 180.31C166.709 179.73 166.669 179.24 166.589 178.84C166.516 178.433 166.359 178.107 166.119 177.86C165.886 177.613 165.546 177.49 165.099 177.49C164.646 177.49 164.299 177.613 164.059 177.86C163.826 178.107 163.669 178.433 163.589 178.84C163.516 179.24 163.479 179.73 163.479 180.31C163.479 180.91 163.516 181.413 163.589 181.82C163.669 182.227 163.826 182.553 164.059 182.8C164.299 183.047 164.646 183.17 165.099 183.17C165.546 183.17 165.886 183.047 166.119 182.8C166.359 182.553 166.516 182.227 166.589 181.82C166.669 181.413 166.709 180.91 166.709 180.31ZM175.184 177.03V182.18C175.184 182.753 175.008 183.213 174.654 183.56C174.301 183.9 173.834 184.07 173.254 184.07C172.668 184.07 172.198 183.897 171.844 183.55C171.491 183.197 171.314 182.717 171.314 182.11H172.224C172.231 182.45 172.318 182.727 172.484 182.94C172.658 183.153 172.914 183.26 173.254 183.26C173.594 183.26 173.848 183.16 174.014 182.96C174.181 182.753 174.264 182.493 174.264 182.18V177.03H175.184ZM181.837 178.52V184H180.927V183.19C180.754 183.47 180.51 183.69 180.197 183.85C179.89 184.003 179.55 184.08 179.177 184.08C178.75 184.08 178.367 183.993 178.027 183.82C177.687 183.64 177.417 183.373 177.217 183.02C177.024 182.667 176.927 182.237 176.927 181.73V178.52H177.827V181.61C177.827 182.15 177.964 182.567 178.237 182.86C178.51 183.147 178.884 183.29 179.357 183.29C179.844 183.29 180.227 183.14 180.507 182.84C180.787 182.54 180.927 182.103 180.927 181.53V178.52H181.837ZM186.044 178.42C186.71 178.42 187.25 178.623 187.664 179.03C188.077 179.43 188.284 180.01 188.284 180.77V184H187.384V180.9C187.384 180.353 187.247 179.937 186.974 179.65C186.7 179.357 186.327 179.21 185.854 179.21C185.374 179.21 184.99 179.36 184.704 179.66C184.424 179.96 184.284 180.397 184.284 180.97V184H183.374V178.52H184.284V179.3C184.464 179.02 184.707 178.803 185.014 178.65C185.327 178.497 185.67 178.42 186.044 178.42Z" fill="black"/>
<path d="M201.212 177.6V176.77H203.092V184H202.172V177.6H201.212ZM204.415 177.6V176.77H206.295V184H205.375V177.6H204.415ZM214.184 177.03V182.18C214.184 182.753 214.008 183.213 213.654 183.56C213.301 183.9 212.834 184.07 212.254 184.07C211.668 184.07 211.198 183.897 210.844 183.55C210.491 183.197 210.314 182.717 210.314 182.11H211.224C211.231 182.45 211.318 182.727 211.484 182.94C211.658 183.153 211.914 183.26 212.254 183.26C212.594 183.26 212.848 183.16 213.014 182.96C213.181 182.753 213.264 182.493 213.264 182.18V177.03H214.184ZM220.837 178.52V184H219.927V183.19C219.754 183.47 219.51 183.69 219.197 183.85C218.89 184.003 218.55 184.08 218.177 184.08C217.75 184.08 217.367 183.993 217.027 183.82C216.687 183.64 216.417 183.373 216.217 183.02C216.024 182.667 215.927 182.237 215.927 181.73V178.52H216.827V181.61C216.827 182.15 216.964 182.567 217.237 182.86C217.51 183.147 217.884 183.29 218.357 183.29C218.844 183.29 219.227 183.14 219.507 182.84C219.787 182.54 219.927 182.103 219.927 181.53V178.52H220.837ZM225.044 178.42C225.71 178.42 226.25 178.623 226.664 179.03C227.077 179.43 227.284 180.01 227.284 180.77V184H226.384V180.9C226.384 180.353 226.247 179.937 225.974 179.65C225.7 179.357 225.327 179.21 224.854 179.21C224.374 179.21 223.99 179.36 223.704 179.66C223.424 179.96 223.284 180.397 223.284 180.97V184H222.374V178.52H223.284V179.3C223.464 179.02 223.707 178.803 224.014 178.65C224.327 178.497 224.67 178.42 225.044 178.42Z" fill="black"/>
<path d="M239.663 177.6V176.77H241.543V184H240.623V177.6H239.663ZM242.996 183.27C243.843 182.59 244.506 182.033 244.986 181.6C245.466 181.16 245.87 180.703 246.196 180.23C246.53 179.75 246.696 179.28 246.696 178.82C246.696 178.387 246.59 178.047 246.376 177.8C246.17 177.547 245.833 177.42 245.366 177.42C244.913 177.42 244.56 177.563 244.306 177.85C244.06 178.13 243.926 178.507 243.906 178.98H243.026C243.053 178.233 243.28 177.657 243.706 177.25C244.133 176.843 244.683 176.64 245.356 176.64C246.043 176.64 246.586 176.83 246.986 177.21C247.393 177.59 247.596 178.113 247.596 178.78C247.596 179.333 247.43 179.873 247.096 180.4C246.77 180.92 246.396 181.38 245.976 181.78C245.556 182.173 245.02 182.633 244.366 183.16H247.806V183.92H242.996V183.27ZM255.184 177.03V182.18C255.184 182.753 255.008 183.213 254.654 183.56C254.301 183.9 253.834 184.07 253.254 184.07C252.668 184.07 252.198 183.897 251.844 183.55C251.491 183.197 251.314 182.717 251.314 182.11H252.224C252.231 182.45 252.318 182.727 252.484 182.94C252.658 183.153 252.914 183.26 253.254 183.26C253.594 183.26 253.848 183.16 254.014 182.96C254.181 182.753 254.264 182.493 254.264 182.18V177.03H255.184ZM261.837 178.52V184H260.927V183.19C260.754 183.47 260.51 183.69 260.197 183.85C259.89 184.003 259.55 184.08 259.177 184.08C258.75 184.08 258.367 183.993 258.027 183.82C257.687 183.64 257.417 183.373 257.217 183.02C257.024 182.667 256.927 182.237 256.927 181.73V178.52H257.827V181.61C257.827 182.15 257.964 182.567 258.237 182.86C258.51 183.147 258.884 183.29 259.357 183.29C259.844 183.29 260.227 183.14 260.507 182.84C260.787 182.54 260.927 182.103 260.927 181.53V178.52H261.837ZM266.044 178.42C266.71 178.42 267.25 178.623 267.664 179.03C268.077 179.43 268.284 180.01 268.284 180.77V184H267.384V180.9C267.384 180.353 267.247 179.937 266.974 179.65C266.7 179.357 266.327 179.21 265.854 179.21C265.374 179.21 264.99 179.36 264.704 179.66C264.424 179.96 264.284 180.397 264.284 180.97V184H263.374V178.52H264.284V179.3C264.464 179.02 264.707 178.803 265.014 178.65C265.327 178.497 265.67 178.42 266.044 178.42Z" fill="black"/>
<path d="M279.526 177.6V176.77H281.406V184H280.486V177.6H279.526ZM282.95 178.59C282.996 177.977 283.233 177.497 283.66 177.15C284.086 176.803 284.64 176.63 285.32 176.63C285.773 176.63 286.163 176.713 286.49 176.88C286.823 177.04 287.073 177.26 287.24 177.54C287.413 177.82 287.5 178.137 287.5 178.49C287.5 178.903 287.38 179.26 287.14 179.56C286.906 179.86 286.6 180.053 286.22 180.14V180.19C286.653 180.297 286.996 180.507 287.25 180.82C287.503 181.133 287.63 181.543 287.63 182.05C287.63 182.43 287.543 182.773 287.37 183.08C287.196 183.38 286.936 183.617 286.59 183.79C286.243 183.963 285.826 184.05 285.34 184.05C284.633 184.05 284.053 183.867 283.6 183.5C283.146 183.127 282.893 182.6 282.84 181.92H283.72C283.766 182.32 283.93 182.647 284.21 182.9C284.49 183.153 284.863 183.28 285.33 183.28C285.796 183.28 286.15 183.16 286.39 182.92C286.636 182.673 286.76 182.357 286.76 181.97C286.76 181.47 286.593 181.11 286.26 180.89C285.926 180.67 285.423 180.56 284.75 180.56H284.52V179.8H284.76C285.373 179.793 285.836 179.693 286.15 179.5C286.463 179.3 286.62 178.993 286.62 178.58C286.62 178.227 286.503 177.943 286.27 177.73C286.043 177.517 285.716 177.41 285.29 177.41C284.876 177.41 284.543 177.517 284.29 177.73C284.036 177.943 283.886 178.23 283.84 178.59H282.95ZM295.184 177.03V182.18C295.184 182.753 295.008 183.213 294.654 183.56C294.301 183.9 293.834 184.07 293.254 184.07C292.668 184.07 292.198 183.897 291.844 183.55C291.491 183.197 291.314 182.717 291.314 182.11H292.224C292.231 182.45 292.318 182.727 292.484 182.94C292.658 183.153 292.914 183.26 293.254 183.26C293.594 183.26 293.848 183.16 294.014 182.96C294.181 182.753 294.264 182.493 294.264 182.18V177.03H295.184ZM301.837 178.52V184H300.927V183.19C300.754 183.47 300.51 183.69 300.197 183.85C299.89 184.003 299.55 184.08 299.177 184.08C298.75 184.08 298.367 183.993 298.027 183.82C297.687 183.64 297.417 183.373 297.217 183.02C297.024 182.667 296.927 182.237 296.927 181.73V178.52H297.827V181.61C297.827 182.15 297.964 182.567 298.237 182.86C298.51 183.147 298.884 183.29 299.357 183.29C299.844 183.29 300.227 183.14 300.507 182.84C300.787 182.54 300.927 182.103 300.927 181.53V178.52H301.837ZM306.044 178.42C306.71 178.42 307.25 178.623 307.664 179.03C308.077 179.43 308.284 180.01 308.284 180.77V184H307.384V180.9C307.384 180.353 307.247 179.937 306.974 179.65C306.7 179.357 306.327 179.21 305.854 179.21C305.374 179.21 304.99 179.36 304.704 179.66C304.424 179.96 304.284 180.397 304.284 180.97V184H303.374V178.52H304.284V179.3C304.464 179.02 304.707 178.803 305.014 178.65C305.327 178.497 305.67 178.42 306.044 178.42Z" fill="black"/>
<path d="M15.7784 155.6V154.77H17.6584V162H16.7384V155.6H15.7784Z" fill="black"/>
<path d="M14.634 138.27C15.4807 137.59 16.144 137.033 16.624 136.6C17.104 136.16 17.5074 135.703 17.834 135.23C18.1674 134.75 18.334 134.28 18.334 133.82C18.334 133.387 18.2274 133.047 18.014 132.8C17.8074 132.547 17.4707 132.42 17.004 132.42C16.5507 132.42 16.1974 132.563 15.944 132.85C15.6974 133.13 15.564 133.507 15.544 133.98H14.664C14.6907 133.233 14.9174 132.657 15.344 132.25C15.7707 131.843 16.3207 131.64 16.994 131.64C17.6807 131.64 18.224 131.83 18.624 132.21C19.0307 132.59 19.234 133.113 19.234 133.78C19.234 134.333 19.0674 134.873 18.734 135.4C18.4074 135.92 18.034 136.38 17.614 136.78C17.194 137.173 16.6574 137.633 16.004 138.16H19.444V138.92H14.634V138.27Z" fill="black"/>
<path d="M14.6557 110.59C14.7023 109.977 14.939 109.497 15.3657 109.15C15.7923 108.803 16.3457 108.63 17.0257 108.63C17.479 108.63 17.869 108.713 18.1957 108.88C18.529 109.04 18.779 109.26 18.9457 109.54C19.119 109.82 19.2057 110.137 19.2057 110.49C19.2057 110.903 19.0857 111.26 18.8457 111.56C18.6123 111.86 18.3057 112.053 17.9257 112.14V112.19C18.359 112.297 18.7023 112.507 18.9557 112.82C19.209 113.133 19.3357 113.543 19.3357 114.05C19.3357 114.43 19.249 114.773 19.0757 115.08C18.9023 115.38 18.6423 115.617 18.2957 115.79C17.949 115.963 17.5323 116.05 17.0457 116.05C16.339 116.05 15.759 115.867 15.3057 115.5C14.8523 115.127 14.599 114.6 14.5457 113.92H15.4257C15.4723 114.32 15.6357 114.647 15.9157 114.9C16.1957 115.153 16.569 115.28 17.0357 115.28C17.5023 115.28 17.8557 115.16 18.0957 114.92C18.3423 114.673 18.4657 114.357 18.4657 113.97C18.4657 113.47 18.299 113.11 17.9657 112.89C17.6323 112.67 17.129 112.56 16.4557 112.56H16.2257V111.8H16.4657C17.079 111.793 17.5423 111.693 17.8557 111.5C18.169 111.3 18.3257 110.993 18.3257 110.58C18.3257 110.227 18.209 109.943 17.9757 109.73C17.749 109.517 17.4223 109.41 16.9957 109.41C16.5823 109.41 16.249 109.517 15.9957 109.73C15.7423 109.943 15.5923 110.23 15.5457 110.59H14.6557Z" fill="black"/>
<path d="M14.7555 91.39V90.7L18.2655 85.84H19.3555V90.6H20.3555V91.39H19.3555V93H18.4555V91.39H14.7555ZM18.4955 86.79L15.8055 90.6H18.4955V86.79Z" fill="black"/>
<path d="M19.5904 63.56H16.0804V65.84C16.2337 65.6267 16.4604 65.4533 16.7604 65.32C17.0604 65.18 17.3837 65.11 17.7304 65.11C18.2837 65.11 18.7337 65.2267 19.0804 65.46C19.427 65.6867 19.6737 65.9833 19.8204 66.35C19.9737 66.71 20.0504 67.0933 20.0504 67.5C20.0504 67.98 19.9604 68.41 19.7804 68.79C19.6004 69.17 19.3237 69.47 18.9504 69.69C18.5837 69.91 18.127 70.02 17.5804 70.02C16.8804 70.02 16.3137 69.84 15.8804 69.48C15.447 69.12 15.1837 68.64 15.0904 68.04H15.9804C16.067 68.42 16.2504 68.7167 16.5304 68.93C16.8104 69.1433 17.1637 69.25 17.5904 69.25C18.117 69.25 18.5137 69.0933 18.7804 68.78C19.047 68.46 19.1804 68.04 19.1804 67.52C19.1804 67 19.047 66.6 18.7804 66.32C18.5137 66.0333 18.1204 65.89 17.6004 65.89C17.247 65.89 16.937 65.9767 16.6704 66.15C16.4104 66.3167 16.2204 66.5467 16.1004 66.84H15.2404V62.76H19.5904V63.56Z" fill="black"/>
<path d="M18.9762 41.49C18.8295 40.75 18.3728 40.38 17.6062 40.38C17.0128 40.38 16.5695 40.61 16.2762 41.07C15.9828 41.5233 15.8395 42.2733 15.8462 43.32C15.9995 42.9733 16.2528 42.7033 16.6062 42.51C16.9662 42.31 17.3662 42.21 17.8062 42.21C18.4928 42.21 19.0395 42.4233 19.4462 42.85C19.8595 43.2767 20.0662 43.8667 20.0662 44.62C20.0662 45.0733 19.9762 45.48 19.7962 45.84C19.6228 46.2 19.3562 46.4867 18.9962 46.7C18.6428 46.9133 18.2128 47.02 17.7062 47.02C17.0195 47.02 16.4828 46.8667 16.0962 46.56C15.7095 46.2533 15.4395 45.83 15.2862 45.29C15.1328 44.75 15.0562 44.0833 15.0562 43.29C15.0562 40.8433 15.9095 39.62 17.6162 39.62C18.2695 39.62 18.7828 39.7967 19.1562 40.15C19.5295 40.5033 19.7495 40.95 19.8162 41.49H18.9762ZM17.6162 42.98C17.3295 42.98 17.0595 43.04 16.8062 43.16C16.5528 43.2733 16.3462 43.45 16.1862 43.69C16.0328 43.9233 15.9562 44.21 15.9562 44.55C15.9562 45.0567 16.1028 45.47 16.3962 45.79C16.6895 46.1033 17.1095 46.26 17.6562 46.26C18.1228 46.26 18.4928 46.1167 18.7662 45.83C19.0462 45.5367 19.1862 45.1433 19.1862 44.65C19.1862 44.13 19.0528 43.7233 18.7862 43.43C18.5195 43.13 18.1295 42.98 17.6162 42.98Z" fill="black"/>
<path d="M42 163C42 160.239 44.2386 158 47 158H61C63.7614 158 66 160.239 66 163V168H42V163Z" fill="#FC8019"/>
<path d="M82 168C82 166.895 82.8954 166 84 166H104C105.105 166 106 166.895 106 168H82Z" fill="#FC8019"/>
<path d="M122 115C122 112.239 124.239 110 127 110H141C143.761 110 146 112.239 146 115V168H122V115Z" fill="#FC8019"/>
<path d="M162 163C162 160.239 164.239 158 167 158H181C183.761 158 186 160.239 186 163V168H162V163Z" fill="#FC8019"/>
<path d="M202 168C202 166.895 202.895 166 204 166H224C225.105 166 226 166.895 226 168H202Z" fill="#FC8019"/>
<path d="M242 141C242 138.239 244.239 136 247 136H261C263.761 136 266 138.239 266 141V168H242V141Z" fill="#FC8019"/>
<path d="M282 168C282 166.895 282.895 166 284 166H304C305.105 166 306 166.895 306 168H282Z" fill="#FC8019"/>
</svg>
